<?xml version="1.0" standalone="no"?>
<!DOCTYPE svg PUBLIC "-//W3C//DTD SVG 20010904//EN"
 "http://www.w3.org/TR/2001/REC-SVG-20010904/DTD/svg10.dtd">
<svg version="1.0" xmlns="http://www.w3.org/2000/svg"
 width="1248.000000pt" height="1872.000000pt" viewBox="0 0 1248.000000 1872.000000"
 preserveAspectRatio="xMidYMid meet">

<g transform="translate(0.000000,1872.000000) scale(0.100000,-0.100000)"
fill="#000000" stroke="none">
<path d="M424 18603 c-100 -133 -221 -263 -246 -263 -9 0 -49 36 -89 80 -39
44 -76 80 -80 80 -5 0 -9 -151 -9 -336 l0 -336 53 7 c69 9 137 39 201 89 64
49 89 78 149 172 42 66 237 411 237 419 0 2 22 42 48 88 74 128 80 117 -57
117 l-119 0 -88 -117z"/>
<path d="M890 18692 c-55 -36 -75 -57 -95 -105 -30 -73 -8 -140 59 -178 36
-21 57 -24 168 -27 l128 -4 -53 -60 c-28 -33 -72 -83 -97 -111 -25 -29 -56
-69 -69 -90 -12 -20 -44 -51 -69 -69 -54 -36 -77 -61 -96 -104 -8 -18 -36 -47
-63 -65 -26 -18 -61 -48 -78 -65 -16 -17 -68 -57 -115 -89 -47 -32 -150 -103
-230 -159 -80 -55 -159 -109 -175 -120 -102 -70 -105 -74 -105 -133 l0 -55 47
36 c45 33 116 84 420 299 114 80 142 92 127 54 -3 -9 2 -20 14 -26 15 -8 20
-7 19 2 -1 35 5 47 22 47 32 0 291 -128 291 -145 0 -9 -9 -15 -25 -15 -23 0
-186 58 -227 80 -10 6 -23 10 -30 10 -21 0 40 -34 144 -79 86 -38 101 -42 145
-35 93 14 153 50 153 92 0 24 1 24 69 17 66 -7 71 -6 95 19 31 31 32 45 5 80
-14 18 -19 35 -15 50 8 33 74 89 95 81 39 -17 99 -17 129 -1 42 22 50 58 27
116 -38 98 -22 120 90 120 78 0 83 1 119 33 48 42 58 91 27 140 -26 42 -19 67
18 67 15 0 47 10 71 23 36 17 44 27 42 45 -1 13 1 22 5 20 215 -110 328 -124
405 -51 26 25 31 26 100 19 169 -15 345 49 464 168 61 61 134 163 134 189 0 4
-21 7 -48 7 -46 0 -48 -1 -72 -47 -80 -150 -236 -233 -442 -233 l-88 0 -24 39
c-29 45 -67 63 -211 96 -55 13 -149 38 -210 55 -135 38 -221 42 -290 11 -27
-12 -50 -19 -53 -16 -5 5 45 75 62 87 6 4 -10 8 -37 8 -44 0 -48 -2 -64 -35
-9 -19 -20 -35 -23 -35 -4 0 -38 15 -76 32 l-69 33 -200 3 -200 3 -45 -29z
m290 -22 c111 -12 204 -36 222 -58 12 -14 3 -15 -79 -9 -108 7 -312 -7 -342
-23 -30 -16 -27 -48 6 -61 27 -10 43 -9 270 12 67 7 128 9 137 6 21 -8 11 -32
-19 -45 -46 -21 -250 -44 -362 -40 -125 3 -153 17 -153 70 0 69 58 125 150
144 70 16 59 15 170 4z m636 -71 c78 -14 360 -95 404 -117 44 -21 52 -60 18
-91 -32 -30 -64 -36 -124 -23 -56 11 -304 128 -304 143 0 18 34 8 173 -47 158
-63 200 -71 205 -38 3 24 -26 36 -223 96 -108 32 -113 33 -277 31 -93 -2 -168
1 -168 6 0 9 35 25 90 40 48 13 135 13 206 0z m-152 -135 c93 -24 166 -54 166
-70 0 -26 -47 -25 -166 4 -65 17 -138 33 -161 37 -24 4 -43 10 -43 15 0 4 15
15 33 24 35 17 68 15 171 -10z m-121 -94 c70 -22 113 -58 169 -142 32 -46 35
-70 13 -88 -24 -20 -54 2 -98 70 -41 62 -93 114 -145 146 -34 19 -41 34 -18
34 8 0 43 -9 79 -20z m-65 -107 c20 -17 34 -34 29 -39 -10 -10 -100 19 -192
63 -79 37 -95 61 -52 80 18 8 36 3 100 -32 43 -23 94 -56 115 -72z m-84 -47
c93 -24 150 -45 173 -62 34 -26 37 -45 5 -38 -59 12 -285 67 -328 79 -28 8
-58 15 -67 15 -23 0 -31 18 -16 36 17 21 61 15 233 -30z m-93 -112 c45 -27
128 -125 144 -171 11 -31 11 -40 0 -52 -22 -22 -47 -4 -110 80 -56 75 -73 93
-137 142 -52 40 36 40 103 1z m-182 -29 c50 -28 119 -90 109 -100 -9 -9 -204
61 -227 81 -12 11 -13 17 -2 38 11 20 17 23 42 16 16 -5 51 -21 78 -35z m336
-14 c7 -12 -12 -24 -25 -16 -11 7 -4 25 10 25 5 0 11 -4 15 -9z m-349 -90 c32
-10 85 -27 117 -36 53 -16 79 -37 64 -52 -4 -3 -44 0 -89 7 -86 14 -158 39
-184 65 -9 8 -24 15 -35 15 -10 0 -19 5 -19 10 0 16 82 11 146 -9z m-157 -71
c51 -28 141 -100 141 -114 0 -15 -35 -2 -136 51 -129 67 -118 59 -111 78 9 23
43 18 106 -15z m46 -116 c133 -62 182 -95 169 -115 -12 -20 -58 -6 -198 61
-80 39 -150 70 -155 70 -5 0 -14 7 -21 15 -10 12 -10 18 1 31 17 21 37 15 204
-62z m209 40 c17 -7 22 -59 7 -68 -8 -6 -51 52 -51 68 0 8 24 8 44 0z m-434
-97 c127 -64 240 -130 240 -141 0 -17 -53 -41 -58 -27 -2 6 -7 11 -12 11 -4 0
-69 30 -144 66 -101 49 -136 70 -136 84 0 35 47 38 110 7z"/>
<path d="M2145 18699 c77 -26 237 -21 355 10 24 6 -34 9 -190 9 l-225 1 60
-20z"/>
<path d="M3360 18717 c0 -2 11 -35 24 -73 35 -104 49 -200 44 -301 -4 -81 -7
-96 -39 -148 -38 -64 -192 -215 -272 -268 -193 -126 -168 -112 -567 -327 -74
-40 -209 -116 -300 -170 -551 -325 -909 -483 -1199 -529 -122 -20 -474 -41
-673 -41 -113 0 -274 23 -341 49 -38 15 -37 16 -37 -24 0 -41 11 -47 120 -71
108 -24 256 -32 430 -23 457 23 554 36 750 100 231 76 610 259 905 436 206
124 361 211 485 273 396 198 675 399 769 554 34 57 61 145 61 204 0 48 30 42
78 -15 71 -87 122 -258 107 -363 -25 -176 -228 -347 -790 -663 -208 -117 -221
-124 -345 -192 -142 -78 -283 -166 -469 -293 -197 -133 -197 -133 -251 -167
-25 -16 -61 -39 -81 -52 -24 -16 -50 -23 -83 -23 -57 0 -98 -25 -121 -74 -12
-26 -31 -40 -76 -61 -86 -38 -271 -104 -359 -126 -74 -19 -75 -19 -102 1 -43
31 -72 26 -120 -24 -39 -40 -52 -47 -131 -65 -147 -35 -190 -37 -230 -12 -46
28 -74 26 -127 -10 l-45 -31 -188 5 -187 4 0 -38 0 -37 84 -7 c46 -4 137 -6
202 -4 108 4 123 6 166 32 l47 27 33 -20 c41 -25 67 -25 204 0 144 27 173 37
211 73 30 28 34 29 62 17 44 -18 100 -7 301 61 237 79 299 111 325 167 18 39
22 42 52 36 49 -9 112 25 420 228 153 101 321 209 373 240 78 45 517 290 610
340 28 15 29 15 194 122 262 170 417 308 471 420 55 114 43 299 -29 449 -36
75 -118 164 -183 198 -25 14 -33 26 -43 70 -6 30 -18 75 -27 102 l-15 47 -49
0 c-27 0 -49 -1 -49 -3z"/>
<path d="M9365 18686 c-25 -60 -35 -122 -33 -218 2 -138 -8 -161 -191 -419
-71 -100 -84 -156 -89 -380 -5 -239 1 -266 92 -402 44 -65 68 -114 76 -149 12
-55 12 -57 -29 -212 -32 -119 -29 -237 8 -351 16 -50 32 -110 36 -135 29 -186
116 -446 176 -530 16 -22 29 -44 29 -49 0 -5 25 -32 55 -60 69 -62 177 -116
274 -136 40 -8 89 -23 108 -32 47 -22 128 -98 199 -185 149 -184 241 -270 375
-348 143 -85 295 -121 411 -100 85 16 114 9 228 -61 98 -59 252 -127 365 -160
68 -20 102 -24 230 -23 141 0 154 1 220 28 181 73 197 76 310 55 42 -8 81 -7
143 1 113 15 122 20 122 74 l0 43 -62 -14 c-48 -12 -98 -14 -208 -9 -158 7
-137 11 -335 -64 -173 -65 -440 -19 -678 116 -185 105 -207 114 -264 114 -30
0 -74 -5 -98 -11 -73 -19 -242 30 -359 103 -103 64 -228 184 -349 334 -114
142 -195 197 -334 227 -250 56 -378 235 -458 638 -13 70 -36 162 -50 205 -29
93 -33 209 -10 294 63 227 54 285 -66 450 -28 38 -57 90 -65 116 -16 55 -19
237 -5 359 14 115 41 179 130 301 44 59 84 126 91 148 6 23 23 64 37 93 24 46
26 62 24 146 -2 91 5 125 44 220 6 15 1 17 -39 17 -44 0 -48 -2 -61 -34z"/>
<path d="M9682 18689 c-52 -51 -33 -96 27 -64 30 15 81 70 81 86 0 5 -17 9
-38 9 -29 0 -46 -7 -70 -31z"/>
<path d="M9891 18698 c-5 -13 -23 -41 -40 -62 -34 -43 -35 -59 -5 -64 26 -4
68 41 93 101 l20 47 -30 0 c-21 0 -32 -6 -38 -22z"/>
<path d="M10066 18661 c-88 -197 -131 -345 -166 -570 -70 -456 -10 -856 190
-1266 74 -150 185 -329 200 -320 5 3 14 22 21 43 49 150 156 317 303 473 l67
70 -26 42 c-91 148 -179 359 -220 529 -28 116 -55 302 -55 383 0 30 -5 57 -10
60 -6 4 -88 -45 -183 -108 -242 -160 -257 -169 -273 -163 -25 10 -16 52 19 82
38 34 250 189 362 265 l80 54 13 85 c15 101 55 286 76 353 l15 47 -193 0 -193
0 -27 -59z m211 -775 c-19 -19 -307 -236 -314 -236 -13 0 54 67 115 114 111
87 249 171 199 122z"/>
<path d="M10577 18713 c-11 -18 -57 -223 -62 -278 -4 -33 -9 -72 -11 -87 -8
-39 9 -36 92 15 169 106 385 231 509 297 44 23 84 46 89 51 6 5 -123 9 -301 9
-172 0 -314 -3 -316 -7z"/>
<path d="M11260 18626 c-140 -75 -486 -274 -722 -415 l-38 -23 0 -116 c0 -65
7 -160 15 -212 34 -225 131 -498 227 -638 29 -42 30 -43 53 -25 13 10 74 57
137 104 332 253 634 427 1063 611 137 59 402 159 458 173 l27 7 0 314 0 314
-522 0 -523 0 -175 -94z m-195 -265 c-27 -26 -377 -260 -448 -301 -132 -74
-46 9 128 124 96 63 171 110 290 178 40 23 54 22 30 -1z"/>
<path d="M3225 18556 c-134 -137 -525 -423 -780 -569 -131 -76 -249 -95 -276
-45 -6 12 -9 56 -7 104 1 46 2 84 1 84 -2 0 -16 -14 -33 -31 -30 -32 -38 -49
-22 -49 4 0 6 -29 4 -63 -4 -60 -3 -65 24 -87 25 -19 37 -22 96 -17 82 5 146
34 332 150 76 48 141 87 144 87 13 0 -42 -50 -163 -149 -71 -58 -139 -114
-150 -124 -53 -50 -266 -203 -310 -223 -97 -46 -155 -25 -155 54 0 48 55 174
125 286 25 40 45 76 45 79 0 30 -52 -41 -134 -184 -64 -112 -86 -249 -46 -289
45 -45 126 -37 238 22 43 22 79 43 82 47 3 3 19 15 35 25 50 32 307 241 442
359 227 200 590 575 572 591 -2 2 -31 -24 -64 -58z"/>
<path d="M9530 18311 c-5 -11 -10 -35 -10 -54 0 -18 -9 -82 -19 -141 -11 -59
-17 -114 -15 -121 8 -20 30 -25 48 -12 35 27 70 262 47 320 -12 32 -36 35 -51
8z"/>
<path d="M1979 18153 c-109 -115 -178 -210 -245 -338 -39 -76 -100 -250 -118
-340 -20 -97 -35 -280 -26 -315 14 -53 25 -20 36 105 15 166 29 238 65 352 37
114 85 222 141 310 49 79 179 237 214 260 26 17 31 33 11 33 -8 0 -43 -30 -78
-67z"/>
<path d="M3450 18008 c-19 -12 -37 -25 -40 -29 -3 -3 -39 -28 -80 -54 -41 -26
-97 -62 -125 -79 -44 -28 -115 -70 -355 -211 -30 -18 -107 -58 -170 -90 -150
-75 -204 -105 -450 -248 -489 -286 -845 -442 -1127 -497 -111 -22 -290 -35
-608 -46 -186 -7 -339 7 -449 40 l-46 14 0 -238 c0 -219 1 -239 18 -244 9 -3
72 -10 139 -16 121 -10 252 -4 438 20 120 15 456 89 524 115 20 8 83 30 141
50 330 116 510 208 1053 540 18 11 55 33 83 49 27 16 56 35 64 42 8 6 121 68
250 137 283 150 307 163 390 212 181 106 392 257 454 325 64 71 70 158 14 205
-36 31 -72 32 -118 3z m115 -23 c19 -18 25 -35 25 -67 0 -39 -5 -47 -63 -103
-35 -33 -111 -92 -168 -130 -120 -81 -111 -75 -249 -156 -135 -79 -150 -88
-240 -136 -201 -108 -288 -153 -295 -153 -22 0 78 223 116 257 13 12 51 36 84
54 111 60 403 238 502 305 54 37 126 87 161 111 73 50 93 53 127 18z"/>
<path d="M12410 17954 c-36 -14 -83 -31 -105 -39 -22 -7 -89 -34 -150 -60 -60
-25 -127 -53 -147 -61 -99 -41 -448 -220 -562 -288 -234 -139 -577 -388 -591
-428 -14 -40 211 -295 370 -421 106 -83 288 -201 382 -246 l92 -45 103 105
c163 165 326 288 523 396 61 33 121 63 133 67 l22 7 0 520 c0 285 -1 519 -2
518 -2 0 -32 -11 -68 -25z"/>
<path d="M1355 17574 c-80 -71 -285 -168 -421 -200 -172 -40 -399 1 -506 91
-17 14 -33 24 -35 21 -13 -13 44 -67 104 -99 185 -96 422 -88 646 24 81 41
215 131 252 169 41 43 10 38 -40 -6z"/>
<path d="M9363 17303 c-23 -9 -14 -38 22 -73 41 -39 77 -111 101 -200 17 -61
22 -200 12 -320 -3 -29 0 -35 19 -38 38 -6 57 39 61 147 7 162 -38 328 -114
428 -20 27 -74 65 -86 62 -2 0 -9 -3 -15 -6z"/>
<path d="M10669 16904 c-40 -47 -93 -113 -117 -147 -89 -128 -172 -334 -158
-392 13 -52 275 -290 439 -398 130 -87 306 -171 471 -227 122 -41 122 -41 130
23 12 87 83 284 146 404 l59 113 -22 14 c-12 7 -51 29 -87 48 -169 91 -363
230 -515 370 -88 82 -127 122 -235 249 -14 16 -28 29 -31 29 -3 0 -39 -39 -80
-86z"/>
<path d="M3424 16954 c-100 -53 -171 -96 -254 -151 -72 -49 -89 -66 -113 -114
-59 -115 -54 -280 14 -481 21 -64 39 -121 39 -126 0 -6 -62 -46 -137 -90 -76
-44 -221 -130 -323 -191 l-185 -111 -18 22 c-45 55 -145 152 -201 195 -96 72
-176 106 -267 111 -88 5 -116 -5 -273 -103 -49 -30 -92 -55 -95 -55 -3 0 -32
-20 -63 -45 -115 -90 -144 -215 -93 -394 14 -52 31 -103 36 -113 7 -13 4 -29
-11 -57 -44 -87 -21 -176 91 -365 93 -156 136 -208 203 -239 31 -15 68 -27 81
-27 14 0 25 -4 25 -8 0 -13 127 -135 176 -171 91 -65 143 -84 240 -89 86 -4
93 -3 154 28 36 18 94 52 130 75 36 23 83 53 105 66 74 44 114 88 130 142 40
136 2 373 -99 610 l-17 38 31 17 c18 9 164 100 327 201 l295 184 26 -34 c89
-116 238 -240 342 -286 163 -71 265 -53 459 83 120 84 157 119 183 172 20 41
23 61 22 152 0 60 -8 133 -17 170 l-16 65 30 28 c57 54 78 126 59 198 -26 100
-162 362 -239 460 -70 91 -148 118 -236 85 l-45 -18 -37 37 c-60 57 -163 121
-222 139 -86 25 -178 21 -237 -10z m259 -96 c87 -47 243 -207 221 -228 -5 -5
-53 31 -114 86 -58 51 -131 107 -162 124 -32 17 -58 35 -58 41 0 19 54 8 113
-23z m-246 -143 c42 -21 100 -64 151 -111 90 -83 103 -119 18 -50 -83 67 -134
99 -228 142 -48 21 -88 42 -88 47 0 20 83 4 147 -28z m685 -56 c47 -52 129
-193 161 -279 14 -36 31 -79 38 -97 10 -26 10 -34 0 -47 -20 -24 -25 -20 -48
32 -45 98 -135 242 -199 318 -86 101 -92 131 -25 121 26 -4 47 -18 73 -48z
m-117 -131 c82 -116 179 -304 173 -338 -2 -15 -25 21 -72 112 -38 73 -87 152
-108 175 -38 43 -44 54 -31 66 11 12 22 8 38 -15z m-61 -442 c82 -172 116
-299 116 -434 0 -87 -17 -142 -45 -142 -11 0 -13 7 -7 33 15 66 7 219 -15 302
-32 118 -57 193 -92 274 -36 84 -37 88 -15 71 8 -8 34 -54 58 -104z m-420 51
c61 -64 83 -153 49 -196 -10 -12 -98 -70 -195 -129 -228 -138 -544 -331 -633
-387 -38 -25 -72 -45 -75 -45 -3 0 -24 33 -48 73 -24 39 -59 95 -77 124 l-35
52 40 23 c42 24 70 41 420 251 118 72 240 143 270 160 30 16 67 38 82 49 35
24 129 68 147 68 8 0 33 -19 55 -43z m-1464 -226 c64 -25 162 -95 224 -161 44
-47 48 -54 33 -65 -9 -7 -17 -21 -17 -31 -1 -18 -1 -18 -14 -1 -8 10 -20 17
-28 16 -33 -4 -58 2 -58 15 0 8 6 16 13 19 9 4 9 7 -1 18 -11 12 -15 11 -23
-3 -12 -22 -45 -23 -53 -2 -10 27 -7 33 21 36 26 3 26 4 -26 53 -49 47 -129
95 -158 95 -7 0 -13 7 -13 15 0 21 39 19 100 -4z m-293 -211 c77 -39 219 -169
210 -193 -11 -29 -37 -19 -96 35 -76 70 -178 134 -234 149 -26 6 -47 15 -47
19 0 32 93 27 167 -10z m621 -67 c2 -8 -5 -13 -17 -13 -12 0 -21 6 -21 16 0
18 31 15 38 -3z m32 -90 c21 -26 21 -65 1 -86 -10 -10 -63 91 -55 104 10 17
32 9 54 -18z m-602 -259 c12 -8 22 -21 22 -28 0 -7 16 -21 35 -32 19 -10 35
-23 35 -29 0 -5 -25 -21 -55 -34 -30 -13 -52 -27 -49 -32 3 -5 -1 -9 -9 -9
-20 0 -50 37 -44 54 4 9 1 13 -7 10 -11 -4 -85 44 -86 56 0 10 95 59 115 60
11 0 31 -7 43 -16z m316 -21 c116 -147 221 -394 251 -590 22 -144 5 -223 -48
-223 -14 0 -17 4 -12 18 17 39 17 188 0 276 -27 148 -111 363 -182 469 -48 70
-54 107 -9 50z m546 -162 c55 -168 74 -341 46 -406 -12 -28 -13 -22 -18 75 -7
115 -25 215 -65 348 -14 48 -28 98 -30 112 -10 54 36 -34 67 -129z m-973 75
c11 -11 -6 -19 -46 -20 -43 -1 -57 6 -46 24 7 12 80 8 92 -4z m250 -36 c12
-23 10 -26 -50 -57 -33 -18 -64 -33 -67 -33 -3 0 -14 13 -23 30 -17 28 -17 29
5 43 83 53 115 57 135 17z m-193 -51 c51 -58 36 -62 -21 -5 -31 30 -42 46 -32
46 9 0 33 -19 53 -41z m236 -31 c17 -12 30 -28 30 -35 0 -12 -108 -73 -129
-73 -9 0 -41 55 -41 71 0 8 87 58 103 59 4 0 21 -10 37 -22z m-242 -70 c32
-35 44 -74 30 -103 -19 -42 -61 -28 -91 32 -17 33 -22 74 -10 86 14 14 50 6
71 -15z m298 -33 c8 -31 12 -26 -53 -59 -63 -31 -80 -32 -88 -6 -9 28 0 38 58
65 67 30 75 30 83 0z m-164 -109 c2 -16 -2 -31 -8 -33 -7 -2 -14 18 -19 53 -4
31 -9 64 -11 73 -2 9 4 -2 15 -24 11 -22 21 -53 23 -69z m192 12 c7 -37 -8
-58 -72 -95 -50 -29 -59 -24 -64 32 -3 39 -2 40 51 68 69 34 77 34 85 -5z"/>
<path d="M3310 16034 c-36 -19 -99 -56 -140 -84 -41 -27 -104 -66 -140 -86
-89 -51 -282 -174 -300 -192 -24 -22 44 14 135 73 44 28 116 73 160 100 44 26
105 64 135 84 30 20 80 50 110 65 65 35 129 76 115 76 -6 -1 -39 -17 -75 -36z"/>
<path d="M3345 15973 c-111 -58 -608 -373 -601 -381 7 -6 74 32 194 110 62 40
142 91 178 113 242 147 285 175 269 175 -6 -1 -23 -8 -40 -17z"/>
<path d="M3230 15817 c-14 -7 -90 -51 -170 -98 -80 -47 -170 -100 -200 -117
-92 -53 -44 -36 69 24 126 67 207 114 279 162 63 43 69 51 22 29z"/>
<path d="M9686 16898 c-3 -7 -7 -45 -9 -84 -3 -39 -11 -98 -18 -132 -7 -34
-10 -65 -6 -68 4 -4 18 -2 31 4 51 23 70 161 35 262 -11 31 -27 39 -33 18z"/>
<path d="M12405 16779 c-125 -72 -143 -83 -234 -147 -115 -82 -233 -184 -293
-255 -27 -30 -48 -58 -48 -61 0 -14 191 -82 335 -120 81 -22 235 -46 293 -46
l22 0 0 230 0 230 -47 -35 c-79 -59 -161 -115 -169 -115 -14 0 41 52 129 122
l87 70 0 84 c0 46 -1 84 -2 84 -2 0 -34 -19 -73 -41z"/>
<path d="M6725 16470 c-74 -11 -147 -42 -219 -94 -76 -54 -124 -107 -157 -175
-26 -54 -34 -58 -63 -36 -33 25 -56 18 -72 -20 -7 -19 -14 -50 -14 -70 0 -19
-3 -35 -6 -35 -4 0 -29 14 -57 31 -75 46 -152 77 -220 90 -34 6 -91 19 -127
30 -229 67 -502 36 -742 -84 -143 -72 -398 -253 -519 -369 -67 -64 -149 -161
-149 -176 0 -7 -9 -17 -20 -24 -37 -23 -25 -41 25 -36 79 9 171 74 256 180
269 337 577 508 912 508 82 0 230 -20 243 -33 3 -2 -12 -8 -32 -11 -60 -12
-89 -25 -77 -37 8 -8 34 -7 87 1 111 17 198 2 311 -55 232 -114 419 -342 485
-591 35 -132 64 -424 42 -424 -5 0 -14 34 -20 75 -6 41 -30 130 -53 197 -40
119 -107 273 -115 265 -3 -2 10 -37 27 -78 43 -101 85 -222 103 -300 45 -196
59 -460 31 -607 -16 -84 -61 -200 -73 -187 -15 14 -12 157 4 187 8 16 14 34
12 40 -2 6 -10 -3 -17 -20 -8 -18 -17 -32 -22 -32 -5 0 -10 46 -10 103 l-2
102 -8 -105 c-13 -177 -59 -518 -84 -614 -12 -50 -34 -119 -48 -153 -38 -93
-167 -273 -196 -273 -15 0 -14 4 19 71 52 102 79 226 89 410 6 90 8 166 5 168
-2 2 -4 -2 -4 -11 0 -35 -59 -188 -99 -256 -70 -121 -195 -242 -222 -215 -7 7
3 24 32 54 119 126 172 265 219 580 26 178 27 177 -19 226 -21 24 -49 69 -61
100 -37 95 -47 116 -54 105 -4 -8 -16 -8 -36 -1 -30 11 -42 33 -74 144 -8 28
-15 43 -15 34 -2 -30 49 -263 64 -297 8 -18 15 -37 15 -42 0 -6 -39 -10 -90
-10 -66 0 -103 -5 -142 -20 -51 -20 -137 -84 -126 -95 2 -3 31 4 63 15 32 11
60 20 62 20 2 0 -6 -18 -17 -41 -42 -82 -35 -202 15 -235 13 -9 30 -14 37 -11
8 4 5 8 -8 12 -46 14 -63 110 -30 173 14 28 20 31 36 22 11 -6 20 -15 20 -21
0 -6 -4 -8 -9 -5 -9 6 1 -54 13 -73 16 -26 45 -10 68 37 13 27 30 48 40 48 31
3 17 -84 -21 -140 -18 -25 -36 -46 -41 -46 -6 0 -10 -4 -10 -10 0 -14 56 22
79 52 31 39 63 128 59 167 -4 47 13 49 51 6 37 -42 40 -83 11 -138 -11 -20
-18 -37 -15 -37 3 0 27 23 54 50 51 52 81 67 61 31 -5 -11 -10 -29 -10 -40 0
-11 -11 -33 -25 -49 -25 -30 -35 -56 -13 -34 20 20 29 14 22 -15 -4 -16 -29
-53 -57 -83 -52 -57 -50 -73 4 -45 l32 17 -7 -29 c-11 -43 -26 -55 -65 -52
-33 3 -43 -4 -107 -67 -88 -87 -153 -124 -304 -175 -113 -38 -282 -79 -326
-79 -33 0 -116 51 -242 149 -106 82 -173 154 -203 216 -34 70 -39 111 -11 100
33 -14 100 -17 118 -6 17 10 16 11 -7 5 -54 -12 -162 42 -252 125 -37 34 -38
35 -33 11 3 -14 8 -68 11 -120 4 -101 5 -104 30 -220 26 -123 53 -183 122
-274 l37 -48 -31 15 c-59 31 -166 171 -205 270 -24 59 -38 79 -38 55 0 -49 23
-231 35 -278 26 -100 100 -253 148 -307 10 -12 16 -26 13 -31 -3 -6 0 -13 6
-16 7 -3 0 -2 -17 1 -16 3 -53 16 -82 29 -62 27 -98 72 -159 199 -80 168 -123
378 -130 630 l-5 170 20 -44 c12 -23 32 -56 46 -73 29 -35 33 -28 6 10 -10 15
-31 52 -47 82 -29 54 -29 57 -29 222 0 196 -14 190 -22 -10 -3 -73 -9 -129
-14 -125 -27 28 -39 297 -19 422 6 35 9 65 7 67 -7 7 -95 -247 -114 -326 -12
-51 -17 -118 -18 -208 0 -106 -2 -129 -12 -116 -39 53 -48 253 -19 404 28 147
123 378 211 510 20 30 43 67 51 82 l14 28 -42 -6 c-62 -8 -95 8 -118 58 -19
43 -20 43 -20 12 0 -39 34 -84 63 -84 12 0 32 -3 43 -6 20 -5 18 -11 -37 -107
-233 -403 -279 -775 -120 -957 l31 -35 -7 45 c-19 110 2 430 29 446 4 3 8 -21
8 -53 0 -64 27 -180 53 -230 13 -24 18 -69 22 -172 3 -76 13 -187 24 -246 l18
-107 -26 -10 c-14 -5 -50 -19 -80 -29 -30 -10 -59 -23 -65 -28 -41 -33 -267
-62 -501 -64 -159 -1 -365 24 -452 54 -194 67 -321 75 -518 34 -455 -96 -649
-127 -875 -141 -95 -6 -109 -5 -145 15 -22 11 -50 21 -63 21 -30 0 -78 25 -85
44 -3 8 -23 25 -44 37 l-39 22 -13 106 c-7 58 -16 132 -20 165 -9 75 -49 110
-81 71 -17 -20 -32 -19 -53 5 -9 11 -26 20 -36 20 -25 0 -61 -45 -61 -77 0
-28 -24 -40 -45 -23 -17 14 -52 5 -64 -18 -12 -24 -48 -177 -56 -239 -5 -40
-12 -56 -32 -68 -40 -27 -52 -70 -51 -191 0 -125 10 -176 42 -219 16 -21 26
-55 34 -115 6 -48 22 -110 36 -143 28 -63 29 -61 -38 -71 -45 -6 -108 -45
-132 -80 -20 -32 -11 -59 29 -88 30 -22 40 -23 157 -20 81 2 136 -1 155 -9 29
-11 91 -18 340 -39 66 -5 141 -16 167 -24 26 -8 100 -18 166 -22 128 -7 148
-3 189 45 l22 25 153 -12 c150 -13 423 -43 563 -63 323 -46 386 -52 595 -56
212 -5 236 -4 410 23 209 32 342 36 498 15 56 -8 102 -15 102 -16 0 -2 -13
-31 -30 -66 -81 -176 -79 -371 6 -526 26 -46 110 -157 136 -178 7 -6 43 -35
81 -64 42 -33 70 -63 74 -79 11 -46 132 -323 180 -412 47 -88 107 -180 140
-215 98 -105 197 -225 222 -268 42 -75 52 -116 61 -267 5 -83 16 -160 28 -200
11 -36 23 -108 26 -160 4 -52 11 -112 15 -132 8 -33 6 -39 -25 -69 -29 -28
-31 -35 -21 -52 38 -62 38 -58 -6 -90 -55 -39 -67 -55 -67 -91 0 -22 -23 -64
-78 -143 -81 -118 -157 -239 -207 -333 -17 -30 -40 -69 -51 -85 -27 -38 -176
-280 -222 -360 -160 -279 -348 -645 -507 -985 -150 -323 -191 -407 -288 -604
-106 -216 -239 -462 -349 -649 -48 -81 -88 -136 -131 -177 -65 -61 -85 -76
-357 -262 -338 -230 -504 -382 -746 -684 -94 -117 -258 -346 -270 -378 -13
-33 32 -16 62 24 168 230 357 460 451 550 146 140 174 162 199 162 19 1 22 3
13 14 -8 10 -3 17 23 30 18 9 35 20 38 23 17 22 71 50 87 45 12 -4 14 -3 5 3
-9 7 -4 15 18 31 16 12 31 22 34 22 2 0 40 22 83 48 43 27 119 70 168 95 50
26 95 51 100 55 6 5 16 7 23 4 23 -7 12 -20 -23 -26 -20 -4 -33 -11 -30 -17 4
-5 1 -9 -5 -9 -7 0 -32 -13 -57 -30 -24 -16 -54 -30 -66 -30 -18 0 -19 -2 -7
-10 8 -5 10 -10 3 -10 -12 0 -192 -112 -298 -185 -39 -27 -83 -58 -100 -69
-16 -12 -49 -37 -71 -57 l-41 -37 22 -83 c12 -46 32 -106 45 -134 76 -167 240
-345 373 -406 36 -16 66 -19 203 -19 l160 0 112 139 c135 167 215 244 354 336
250 167 363 280 593 594 176 240 471 630 545 722 107 132 276 315 529 574 449
460 710 777 931 1131 30 49 85 134 122 191 37 56 74 117 84 135 9 18 20 35 23
38 4 3 46 72 95 153 49 82 100 162 113 178 23 27 27 28 42 15 9 -8 23 -32 30
-53 7 -21 21 -56 31 -78 10 -22 35 -83 55 -135 107 -271 265 -579 464 -908 47
-78 102 -168 121 -200 19 -32 58 -94 86 -138 28 -43 75 -117 104 -164 70 -112
117 -185 152 -238 15 -24 28 -45 28 -48 0 -2 15 -28 34 -57 45 -70 197 -321
228 -377 14 -25 45 -79 70 -120 45 -74 108 -183 277 -475 162 -279 182 -306
396 -516 150 -147 203 -213 370 -461 70 -103 139 -201 155 -218 47 -51 82 -33
39 20 -11 14 -33 43 -49 66 l-29 41 80 -5 c100 -6 183 10 284 56 173 77 284
183 365 346 27 56 54 122 61 149 12 50 16 54 41 35 73 -57 336 -554 503 -948
15 -36 35 -81 45 -100 10 -19 43 -96 75 -170 31 -74 74 -172 96 -218 21 -46
39 -85 39 -87 0 -13 287 -595 398 -807 28 -54 47 -98 43 -98 -5 0 -22 7 -37
15 -16 8 -45 15 -64 14 l-35 -1 35 -11 c67 -23 160 -77 177 -105 9 -15 32 -44
50 -65 41 -46 43 -62 6 -52 -52 14 -198 17 -258 5 -101 -20 -235 -105 -272
-173 -14 -26 -38 -12 -59 36 -10 23 -35 71 -55 107 -20 36 -59 109 -88 163
-112 208 -338 547 -366 547 -6 0 -22 -69 -38 -162 -15 -90 -61 -365 -102 -613
-40 -247 -77 -464 -81 -482 -6 -31 -5 -32 37 -38 24 -3 106 -5 182 -3 l138 3
110 240 c61 132 119 259 129 283 11 23 22 42 24 42 3 0 17 -22 30 -48 14 -27
41 -70 61 -96 39 -51 39 -77 -1 -52 -32 22 -51 21 -31 -1 14 -16 55 -101 86
-176 6 -15 11 -41 11 -57 0 -17 3 -30 6 -30 4 0 37 31 74 69 111 114 290 189
463 194 40 1 90 -2 111 -6 l39 -8 -6 38 c-3 21 -9 53 -12 71 -7 28 -5 32 14
32 24 0 49 -46 73 -133 11 -41 10 -49 -2 -58 -12 -7 -11 -10 8 -15 12 -4 22
-7 22 -8 0 0 7 -23 15 -50 l15 -48 -25 6 c-33 8 -32 -7 2 -30 39 -25 59 -52
85 -111 12 -29 28 -53 35 -53 20 0 16 18 -36 150 -43 111 -81 225 -107 329
-10 38 -18 44 -84 63 -42 12 -46 17 -69 73 -13 33 -26 89 -28 125 -7 88 -21
108 -83 116 -27 4 -56 12 -64 18 -19 15 -222 420 -358 716 -50 107 -148 330
-148 335 0 3 -21 51 -46 107 -25 57 -52 117 -59 133 -7 17 -23 53 -35 80 -13
28 -37 84 -55 125 -142 332 -304 653 -408 812 -141 213 -330 406 -755 770 -78
67 -112 119 -217 333 -199 408 -337 810 -614 1800 -147 523 -223 752 -369
1115 -52 129 -107 271 -124 314 -16 44 -35 93 -42 110 -7 17 -32 85 -56 151
-50 141 -108 259 -186 382 -157 245 -331 386 -674 550 -96 46 -188 90 -204 99
-16 8 -106 33 -200 54 -242 56 -293 76 -329 125 -41 55 -77 139 -77 178 0 98
73 499 141 780 l42 173 91 -1 c87 0 94 2 150 35 170 102 228 281 171 529 -9
35 -14 65 -13 67 9 8 123 -22 176 -48 79 -37 121 -73 172 -150 52 -78 80 -170
80 -262 0 -62 -4 -78 -29 -117 -35 -56 -86 -89 -135 -89 -43 0 -40 -15 4 -24
56 -11 116 33 160 117 74 137 24 344 -125 522 -73 87 -180 190 -281 271 -317
254 -511 497 -630 789 -36 86 -47 84 -14 -3 101 -266 323 -551 618 -791 56
-46 100 -86 98 -89 -7 -6 -216 68 -246 87 l-25 16 20 -27 c11 -15 24 -28 29
-28 20 0 205 -74 246 -98 48 -27 150 -119 150 -134 0 -5 -29 7 -64 27 -36 20
-96 42 -137 51 -93 19 -101 24 -140 84 -18 27 -36 50 -41 50 -12 0 -10 -9 11
-38 10 -15 26 -49 36 -77 10 -27 22 -54 26 -60 4 -5 14 -35 22 -65 47 -169 21
-308 -79 -419 -64 -71 -136 -98 -246 -93 -37 2 -38 3 -38 41 l0 39 57 7 c31 4
68 11 82 17 49 18 120 81 148 132 25 46 28 60 28 146 0 111 -20 173 -94 283
-25 38 -51 77 -56 87 -16 27 -84 100 -94 100 -10 0 -132 67 -186 103 -163 108
-289 257 -324 382 -8 31 -8 44 4 62 8 12 15 29 15 38 0 8 7 15 15 15 8 0 15
-9 15 -19 0 -11 3 -21 8 -23 4 -1 29 -41 55 -87 57 -98 168 -231 263 -316 37
-33 74 -66 81 -74 8 -7 16 -11 19 -8 3 3 -22 32 -57 64 -112 104 -188 187
-239 260 -28 39 -50 74 -50 77 0 3 -18 35 -40 71 -22 36 -40 70 -40 76 0 7 11
41 24 78 38 106 71 307 95 586 l6 70 24 -80 c107 -360 180 -510 320 -657 25
-27 49 -48 55 -48 5 0 -18 28 -50 63 -107 111 -172 227 -238 428 -58 174 -128
451 -126 496 2 24 31 -55 55 -147 69 -262 178 -482 338 -680 85 -105 225 -248
272 -278 24 -15 35 -27 27 -30 -22 -7 -96 26 -170 77 -39 27 -69 44 -66 37 6
-16 149 -110 204 -134 174 -75 272 -86 470 -54 200 34 275 42 376 42 249 0
471 -117 554 -291 16 -35 30 -74 30 -86 0 -12 5 -25 12 -29 21 -13 0 94 -29
149 -15 28 -55 79 -88 112 -162 165 -390 206 -780 140 -193 -32 -335 -36 -386
-10 -57 29 -113 75 -224 184 -99 98 -134 137 -221 253 -132 176 -212 342 -295
603 -44 143 -95 277 -125 338 -8 15 -13 27 -10 27 2 0 37 -34 77 -76 41 -42
102 -96 135 -120 90 -65 239 -131 346 -156 127 -28 367 -28 558 0 74 11 138
18 141 14 4 -4 3 -36 -2 -72 -21 -164 36 -359 151 -514 48 -66 167 -178 250
-237 174 -123 414 -219 552 -219 42 0 48 -3 68 -34 23 -39 76 -76 107 -76 11
0 46 -9 79 -21 48 -17 73 -20 132 -15 56 5 80 2 104 -10 75 -39 202 12 248 98
17 33 36 52 67 67 59 28 78 62 79 138 0 46 5 68 19 83 26 28 32 120 12 168 -9
20 -18 65 -20 99 -13 162 -134 236 -325 197 -18 -4 -37 9 -85 56 -34 34 -74
69 -89 78 -37 22 -41 38 -18 70 32 43 39 81 25 135 -7 27 -21 61 -32 75 -30
41 -99 90 -146 104 -82 24 -274 12 -567 -37 -47 -8 -191 -28 -320 -45 -129
-17 -305 -40 -390 -51 -105 -15 -213 -22 -335 -22 -164 -1 -189 1 -276 25
-171 46 -346 151 -460 276 l-52 57 54 7 c30 4 77 10 104 14 63 7 71 14 16 14
l-42 0 18 30 c19 33 25 35 54 20 39 -21 18 -1 -28 27 -81 48 -105 55 -208 62
l-100 6 55 37 c80 52 150 117 150 138 0 35 -32 41 -158 33 -64 -4 -121 -8
-127 -8 -5 0 -22 34 -37 75 -16 40 -34 80 -39 87 -33 39 105 219 208 272 99
50 251 65 354 35 77 -23 183 -84 432 -249 150 -99 244 -154 300 -176 89 -34
239 -69 300 -69 21 0 36 -4 33 -9 -7 -10 -177 -41 -305 -55 -78 -8 -219 13
-323 48 -105 35 -121 33 -28 -4 104 -42 185 -60 290 -66 l105 -6 120 -68 c153
-86 208 -113 273 -134 28 -10 52 -20 52 -23 0 -3 -53 -3 -117 0 -197 8 -427
73 -618 172 -119 62 -146 79 -218 138 -26 21 -44 32 -41 23 3 -8 27 -32 52
-53 26 -21 72 -60 102 -88 30 -27 42 -35 25 -17 -24 26 -26 32 -10 26 11 -4
31 -15 45 -24 152 -105 484 -200 694 -200 130 0 420 43 611 90 44 11 97 20
117 20 20 0 39 4 42 9 4 5 -3 7 -14 4 -11 -3 -31 2 -45 11 -15 10 -45 16 -79
16 -63 0 -86 -7 -86 -25 0 -7 -15 -16 -32 -20 -18 -3 -42 -10 -53 -15 -35 -15
-127 -31 -220 -37 -80 -5 -98 -3 -160 20 -97 35 -155 62 -262 121 -93 51 -110
66 -74 66 10 0 59 12 107 26 l89 25 107 108 c155 157 271 228 336 205 28 -10
33 -33 18 -84 l-7 -25 20 24 c12 13 21 31 21 42 0 29 19 32 32 5 15 -34 28
-33 28 2 -2 86 -76 143 -187 143 -136 0 -262 -62 -428 -211 -93 -83 -126 -99
-204 -101 -88 -2 -210 59 -394 199 -271 206 -442 277 -607 251 -40 -6 -74 -9
-76 -6 -4 4 55 17 161 36 l50 9 -55 0 c-30 0 -77 -4 -105 -8z m1730 -214 c40
-17 50 -41 11 -26 -62 23 -189 -52 -370 -220 l-89 -82 -81 4 c-45 2 -90 9
-100 15 -17 10 -15 13 25 31 24 11 80 54 124 96 87 83 187 149 269 177 63 22
165 24 211 5z m-3773 -440 c-16 -19 -59 -76 -95 -127 -36 -52 -78 -103 -94
-115 -40 -30 -94 -56 -100 -50 -13 12 89 145 159 209 116 105 193 154 130 83z
m4376 -506 c67 -29 117 -86 132 -152 10 -40 10 -55 0 -74 -8 -13 -16 -24 -19
-24 -3 0 -40 30 -81 66 -41 36 -88 71 -105 78 -16 7 -61 36 -98 64 -37 29 -73
52 -80 52 -7 0 -6 4 3 11 27 18 188 5 248 -21z m-291 -25 c86 -51 168 -127
160 -148 -12 -31 -35 -29 -96 8 -74 46 -159 57 -237 31 -27 -9 -74 -22 -105
-30 -102 -27 -297 -130 -461 -243 -72 -50 -78 -52 -87 -34 -18 33 -32 160 -25
230 11 112 1 104 176 130 84 12 223 33 308 47 136 21 259 39 297 43 7 0 38
-15 70 -34z m330 -241 c42 -32 45 -59 6 -50 -61 15 -111 76 -62 76 12 0 37
-11 56 -26z m-573 -37 c3 -12 14 -32 26 -44 11 -12 20 -26 20 -30 0 -5 -29
-21 -65 -37 -68 -30 -256 -149 -367 -233 -76 -58 -75 -58 -121 32 l-25 51 31
21 c116 76 458 262 483 263 7 0 14 -10 18 -23z m677 -108 c19 -10 16 -14 -38
-51 -81 -57 -163 -128 -163 -142 1 -11 103 -90 131 -101 9 -3 49 26 104 79
l90 84 95 6 c106 8 143 -2 194 -49 27 -25 28 -30 23 -82 -5 -47 -2 -63 19
-102 33 -63 31 -102 -7 -146 -25 -28 -30 -41 -24 -63 19 -76 18 -92 -4 -92
-12 0 -21 4 -21 10 0 5 -14 25 -31 45 -26 29 -38 35 -70 35 -52 0 -49 -13 10
-39 50 -21 61 -35 61 -75 0 -21 -18 -35 -62 -50 -12 -3 -18 -16 -18 -34 0 -29
-25 -59 -67 -81 -34 -17 -81 -13 -113 11 -30 21 -31 22 -78 5 -60 -22 -79 -21
-124 3 -24 13 -47 17 -70 14 -77 -13 -145 80 -155 211 -6 78 4 135 39 223 26
66 47 73 116 38 60 -30 69 -32 51 -10 -19 23 -122 71 -169 79 -25 4 -57 1 -87
-8 -103 -33 -173 -27 -181 14 -2 13 6 16 35 16 54 0 125 39 239 131 146 117
221 150 275 121z m-542 -55 c-14 -17 -35 -18 -45 -2 -11 17 26 40 43 27 10 -9
10 -15 2 -25z m-2611 0 c12 -8 22 -22 22 -30 0 -8 9 -33 19 -54 40 -83 -21
-40 -74 53 -25 43 -25 47 -8 47 10 0 29 -7 41 -16z m-21 -80 c21 -32 46 -57
66 -65 46 -18 86 -67 87 -106 0 -39 -7 -41 -35 -10 -11 12 -38 37 -61 54 -43
34 -97 125 -108 183 -6 30 -5 32 5 15 7 -11 27 -43 46 -71z m2536 -16 c3 -29
8 -65 12 -80 6 -22 3 -27 -17 -33 -57 -18 -168 -117 -225 -200 -28 -41 -34
-40 -109 29 l-49 46 25 20 c14 12 93 73 177 135 83 63 154 119 158 125 14 22
23 8 28 -42z m-2650 -124 c11 -11 -5 -34 -24 -34 -12 0 -19 7 -19 20 0 19 28
28 43 14z m2766 -80 c33 -16 115 -16 170 2 22 6 23 5 17 -17 -37 -118 -47
-178 -41 -246 l6 -73 -38 0 c-84 1 -346 90 -341 117 4 17 177 233 187 233 4 0
22 -7 40 -16z m-2200 -211 c-20 -61 -31 -50 -24 23 9 86 17 100 27 50 5 -24 4
-52 -3 -73z m-1687 -99 c23 -82 54 -131 134 -210 36 -35 59 -64 52 -64 -34 0
-194 34 -205 44 -16 15 -40 140 -49 250 l-7 90 29 -23 c21 -16 34 -40 46 -87z
m-3442 -16 c0 -39 1 -40 14 -22 12 15 17 16 27 7 10 -10 12 -60 10 -199 -2
-165 0 -195 21 -274 12 -49 20 -91 18 -94 -3 -2 -20 -6 -38 -8 -31 -3 -35 0
-48 37 -23 66 -32 172 -26 332 l5 151 -28 26 c-25 24 -27 28 -15 56 9 21 19
30 36 30 21 0 24 -4 24 -42z m116 11 c7 -13 17 -116 23 -229 10 -192 28 -311
52 -334 17 -18 9 -26 -29 -26 l-39 0 -28 80 c-27 79 -27 84 -21 228 4 86 3
176 -3 217 -7 49 -7 73 1 82 15 18 31 12 44 -18z m5004 -10 c0 -11 4 -18 8
-15 5 3 14 -12 21 -32 51 -144 205 -298 408 -408 48 -26 102 -58 119 -71 33
-24 101 -125 81 -118 -7 2 -50 15 -97 30 -47 14 -98 32 -115 40 -16 8 -82 37
-145 65 -178 80 -213 98 -286 154 -46 34 -70 59 -72 75 -4 22 14 103 27 126 3
6 4 21 2 35 l-3 25 22 -25 c12 -14 33 -45 46 -70 29 -55 52 -85 59 -78 3 3
-12 32 -33 64 -45 67 -63 114 -57 146 3 12 0 27 -5 33 -11 14 -3 45 11 45 5 0
9 -9 9 -21z m-5256 -65 c7 -19 8 -59 1 -66 -10 -10 -55 4 -55 18 0 48 40 84
54 48z m96 -24 c8 -15 8 -51 -1 -128 -14 -129 -7 -235 19 -320 18 -55 18 -64
5 -77 -8 -8 -21 -16 -29 -16 -8 -1 -19 -2 -25 -3 -6 -1 -21 33 -33 74 -18 63
-21 102 -21 240 0 193 12 250 50 250 14 0 29 -8 35 -20z m4749 -82 c-41 -81
-89 -148 -105 -148 -26 0 -13 97 20 149 24 37 30 41 66 41 l40 0 -21 -42z
m151 -83 c-6 -30 -14 -55 -18 -55 -4 0 -20 -29 -36 -65 -16 -36 -30 -65 -31
-65 -1 0 -24 10 -51 21 -46 21 -47 22 -28 38 37 30 101 119 135 187 l34 68 3
-38 c2 -20 -2 -61 -8 -91z m-5020 59 c6 -14 10 -78 10 -142 0 -95 5 -135 26
-211 l26 -94 -44 -38 c-24 -21 -46 -38 -49 -39 -3 0 -16 46 -28 102 -25 106
-25 99 -2 329 10 107 39 151 61 93z m3555 -209 c22 -23 56 -51 75 -62 36 -21
90 -38 90 -28 0 3 -17 29 -39 58 -21 29 -53 78 -71 111 l-33 58 44 -7 c24 -3
58 -10 74 -15 17 -5 68 -16 115 -25 88 -18 99 -22 164 -63 l39 -24 -50 -28
c-67 -39 -148 -128 -212 -238 -59 -100 -79 -112 -118 -69 -50 53 -165 287
-142 287 5 0 20 -9 32 -20 12 -12 48 -34 81 -50 67 -34 145 -41 166 -15 18 22
7 28 -24 13 -36 -16 -101 1 -178 48 -78 47 -110 91 -116 157 l-4 52 33 -49
c18 -27 51 -68 74 -91z m1145 51 c0 -59 17 -96 45 -96 18 0 70 -59 59 -68 -5
-5 -43 -30 -84 -58 -41 -27 -97 -71 -124 -97 -48 -48 -49 -48 -135 -57 -153
-16 -331 -22 -331 -12 0 6 7 13 16 16 13 5 15 20 13 91 -2 47 -3 85 -1 85 2 0
10 -7 19 -16 45 -44 268 76 444 239 71 67 79 64 79 -27z m-1450 12 c33 -131
108 -295 175 -382 20 -26 34 -50 31 -53 -2 -3 -125 -7 -273 -10 l-268 -6 -110
31 c-142 40 -218 52 -338 52 -98 0 -379 -28 -557 -55 -154 -24 -509 -64 -716
-81 l-194 -16 -47 23 c-41 20 -67 24 -183 27 -74 2 -138 7 -143 11 -4 4 2 29
14 56 21 47 30 165 18 233 -4 23 -1 24 61 28 170 11 424 51 720 114 270 57
416 64 580 25 328 -76 339 -77 520 -82 117 -3 218 0 306 10 116 14 144 21 250
65 65 27 124 50 131 51 7 0 17 -18 23 -41z m1965 -11 c67 -62 107 -82 449
-234 43 -20 124 -48 180 -64 115 -33 133 -47 166 -136 41 -111 45 -187 11
-275 -27 -72 -127 -142 -214 -150 l-39 -3 -3 125 c-3 147 -26 246 -81 351 -87
166 -204 238 -383 239 -40 0 -186 32 -197 42 -4 5 65 138 71 138 2 0 20 -15
40 -33z m-4814 -22 c26 -24 60 -47 76 -50 113 -25 154 -63 161 -153 5 -57 -13
-157 -29 -168 -5 -3 -16 -1 -24 6 -9 8 -14 45 -17 130 -3 136 -5 138 -92 165
-36 11 -62 29 -96 65 -57 62 -44 66 21 5z m-482 -265 c20 -64 12 -120 -16
-102 -26 17 -41 72 -46 177 -5 101 -3 113 16 145 l22 35 6 -110 c4 -60 12
-126 18 -145z m4111 213 c0 -3 -24 -29 -53 -57 -71 -68 -174 -192 -198 -238
-17 -33 -39 -51 -39 -32 0 12 57 103 108 171 62 84 182 187 182 156z m829 -14
c17 -6 31 -15 31 -20 0 -5 9 -9 19 -9 44 0 25 -22 -92 -112 -115 -88 -181
-128 -193 -115 -8 7 38 51 104 99 161 116 173 128 132 128 -24 0 -70 21 -70
32 0 11 31 10 69 -3z m306 -70 c5 -5 1 -9 -12 -9 -11 0 -42 -3 -69 -6 l-49 -7
23 26 c21 22 27 24 60 15 20 -5 41 -14 47 -19z m-1045 -5 c0 -8 -14 -29 -31
-47 -17 -18 -56 -69 -86 -114 -53 -81 -66 -93 -78 -73 -7 12 65 119 130 193
52 59 65 67 65 41z m1357 -55 c87 -42 177 -177 220 -329 28 -102 24 -312 -10
-457 -61 -265 -188 -487 -312 -544 -63 -29 -141 -25 -196 10 -99 62 -189 224
-189 338 0 30 3 33 29 33 15 0 81 -14 145 -31 65 -16 122 -29 127 -27 5 2 -27
16 -71 32 -78 27 -89 39 -45 48 11 3 -25 8 -80 13 -97 8 -197 4 -470 -15 -357
-25 -656 -2 -1110 87 -427 83 -610 98 -770 64 -230 -50 -484 -52 -840 -7 -462
59 -836 96 -960 96 -68 0 -76 2 -91 25 -39 60 -25 232 24 286 l27 30 295 30
c420 42 613 65 838 98 442 66 536 66 742 5 l125 -37 205 1 c113 0 320 5 460
11 140 6 381 16 535 21 429 16 467 23 772 141 85 33 182 67 215 75 148 38 310
39 385 3z m-5040 -26 c26 -29 47 -72 39 -81 -5 -4 -33 26 -79 85 -16 20 -17
23 -2 23 9 0 27 -12 42 -27z m3693 -50 c4 -26 3 -60 -2 -75 -9 -26 -13 -28
-69 -28 -32 0 -59 4 -59 8 0 27 106 160 118 148 3 -3 8 -27 12 -53z m-3614
-98 c16 -19 39 -48 52 -65 18 -23 31 -30 58 -30 47 0 43 -16 -5 -23 -22 -3
-50 -14 -62 -26 -13 -12 -28 -21 -33 -21 -6 0 5 14 24 30 19 16 29 30 22 30
-14 0 -131 119 -132 133 0 4 11 7 24 7 15 0 34 -13 52 -35z m-531 -80 c9 -44
32 -116 51 -160 31 -72 32 -81 18 -92 -9 -6 -22 -9 -29 -7 -27 11 -94 215 -95
286 0 23 27 65 36 56 1 -2 10 -39 19 -83z m3560 53 c11 -9 -26 -11 -49 -2 -9
3 -16 12 -16 20 0 11 5 11 28 2 15 -7 31 -15 37 -20z m-2619 -93 c2 -5 -11
-17 -29 -25 -71 -33 -118 -173 -97 -288 14 -76 43 -113 105 -135 20 -7 -18
-37 -47 -37 -21 0 -40 10 -63 33 -92 92 -83 333 15 422 43 38 109 56 116 30z
m-663 -223 c9 -8 17 -28 17 -43 0 -80 46 -112 157 -111 48 0 75 -4 83 -13 8
-10 4 -14 -16 -19 -42 -11 -330 3 -424 21 -55 10 -111 14 -159 10 -119 -9
-162 22 -103 75 28 24 40 28 94 28 43 0 81 8 127 27 129 52 186 58 224 25z
m3401 -414 c3 -13 7 -35 10 -49 8 -37 60 -105 104 -134 74 -49 148 -68 262
-69 158 -1 261 42 365 150 46 49 85 69 85 45 0 -5 -17 -31 -38 -58 -107 -135
-213 -183 -401 -183 -152 0 -253 32 -341 108 -49 42 -90 120 -90 175 0 30 4
37 20 37 12 0 21 -8 24 -22z m228 -13 c65 -8 203 -20 308 -27 104 -6 190 -15
190 -19 0 -17 -101 -95 -160 -123 -62 -29 -71 -30 -197 -31 -72 0 -134 3 -138
7 -8 8 36 88 72 132 13 16 21 31 17 35 -9 9 -70 -65 -93 -115 l-21 -44 -40 20
c-55 28 -108 86 -116 126 -9 49 0 65 33 59 15 -3 81 -12 145 -20z m1058 -61
c6 -30 32 -96 57 -146 86 -172 206 -256 323 -228 61 15 155 77 193 127 23 31
27 33 27 15 0 -45 -31 -97 -76 -127 -88 -59 -116 -69 -195 -73 -98 -5 -133 11
-215 94 -86 88 -153 222 -161 322 -6 68 -5 72 15 72 17 0 23 -10 32 -56z m-45
-124 c42 -118 171 -280 250 -315 25 -11 66 -18 110 -18 79 -1 129 18 208 79
l48 37 -7 -29 c-14 -60 -53 -173 -73 -213 -30 -58 -133 -165 -226 -234 -80
-60 -183 -117 -209 -117 -22 0 -112 120 -151 202 -19 40 -42 107 -51 148 -30
142 -3 422 52 548 l17 37 8 -40 c4 -22 15 -60 24 -85z m605 -543 c-13 -87 -34
-120 -139 -219 -292 -279 -713 -372 -1160 -257 -235 60 -458 147 -499 193 -23
26 -76 146 -68 153 3 4 16 -3 29 -14 54 -50 300 -150 467 -189 204 -48 460
-58 626 -24 119 24 269 73 306 100 15 11 31 20 37 20 18 0 167 112 229 173 35
34 89 94 120 132 l57 70 3 -33 c2 -18 -2 -66 -8 -105z m-1410 -119 c36 -12 58
-24 50 -26 -8 -1 -46 12 -85 28 -77 35 -65 34 35 -2z m1404 -40 c3 -13 10 -63
16 -113 14 -117 29 -195 39 -195 4 0 2 42 -5 93 -7 50 -13 103 -14 116 0 24 1
24 33 -10 56 -61 89 -76 342 -149 156 -46 173 -55 184 -99 27 -107 20 -237
-20 -372 -23 -80 -87 -199 -148 -274 -44 -55 -171 -165 -190 -165 -5 0 -11 -4
-13 -9 -5 -12 -111 -79 -187 -116 -101 -50 -295 -112 -401 -130 -155 -25 -347
-16 -493 21 -47 12 -75 29 -143 86 -46 40 -84 76 -84 82 0 5 -3 7 -6 4 -10
-11 15 -47 62 -90 25 -23 41 -44 35 -46 -19 -6 -184 80 -217 115 -34 35 -64
132 -64 208 0 63 -32 179 -60 220 -16 22 -69 85 -120 140 -108 118 -179 215
-226 307 -34 68 -76 170 -71 175 2 1 48 -16 102 -38 133 -53 232 -84 414 -129
351 -88 741 -20 1000 176 54 41 211 194 211 206 0 18 20 6 24 -14z m-1184 -29
c25 -14 -8 -11 -60 6 l-45 15 45 -6 c25 -3 52 -10 60 -15z m106 -28 c-3 -5
-15 -7 -26 -4 -28 7 -25 13 6 13 14 0 23 -4 20 -9z m1950 -426 c3 -8 45 -34
92 -58 346 -175 485 -329 594 -658 l52 -157 58 -28 c32 -16 58 -34 58 -41 0
-8 -18 -3 -49 12 -57 29 -62 30 -55 10 4 -8 13 -15 20 -15 21 0 108 -45 123
-64 12 -14 11 -16 -6 -16 -10 0 -23 4 -28 8 -6 5 -43 23 -83 41 -40 17 -82 40
-93 50 -49 45 -233 99 -371 108 -54 3 -98 10 -98 15 0 4 40 8 88 8 95 0 233
-25 322 -59 58 -22 72 -26 54 -13 -6 4 -25 56 -43 116 -68 233 -159 371 -326
496 -47 35 -280 180 -290 180 -3 0 -5 -21 -5 -46 0 -89 -48 -289 -91 -378 -11
-22 -19 -44 -19 -50 0 -6 20 -31 45 -56 24 -25 46 -56 49 -70 2 -14 5 -26 5
-27 1 -2 21 9 46 23 34 19 50 22 63 15 16 -10 16 -10 0 -11 -10 0 -18 -4 -18
-9 0 -5 -9 -13 -20 -16 -29 -9 -25 -23 13 -39 47 -20 78 -58 141 -175 93 -172
158 -323 256 -596 66 -182 52 -170 175 -140 93 22 320 31 391 16 43 -10 57
-18 69 -41 26 -50 21 -59 -27 -48 -57 13 -274 3 -367 -17 -156 -33 -346 -112
-500 -208 -140 -87 -320 -247 -417 -371 -17 -22 -35 -36 -41 -33 -5 4 -18 26
-27 50 l-17 44 103 105 c119 122 191 183 305 262 83 58 287 168 332 179 19 5
22 9 14 19 -6 7 -28 63 -48 123 -50 152 -174 461 -232 581 -96 199 -136 245
-197 230 -13 -3 -66 -50 -117 -103 -52 -56 -84 -84 -73 -65 17 29 36 54 128
167 26 33 15 83 -30 129 l-36 37 -31 -28 -30 -28 25 45 c66 117 78 141 101
220 34 111 50 239 42 323 -4 46 -3 67 5 67 6 0 13 -7 16 -15z m-2062 -950 c8
-19 24 -89 35 -157 21 -121 20 -137 -12 -138 -5 0 -7 -10 -5 -22 3 -24 40 -45
163 -95 98 -39 91 -41 -27 -7 -56 16 -103 24 -123 21 -47 -8 -114 -55 -122
-86 -10 -43 -175 -306 -197 -314 -7 -3 -19 -2 -26 3 -14 9 12 61 72 142 79
106 100 142 105 178 5 37 9 42 69 70 69 32 75 44 47 92 -18 29 -18 30 6 49 26
21 26 17 -2 199 -17 107 -11 132 17 65z m2810 -36 c19 -9 32 -32 55 -93 16
-45 50 -130 76 -190 64 -151 125 -304 125 -317 0 -6 -14 -9 -30 -7 -30 3 -33
8 -116 218 -47 118 -90 224 -94 235 -21 51 -50 137 -50 150 0 18 2 18 34 4z
m-2561 -178 c37 -17 67 -33 67 -36 0 -12 -214 85 -235 106 -10 10 28 -5 168
-70z m1381 -78 c-4 -21 -12 -56 -19 -78 -7 -22 -16 -58 -19 -80 -3 -22 -12
-85 -21 -140 -8 -55 -15 -124 -15 -153 0 -37 -3 -51 -11 -46 -20 12 0 204 38
374 26 120 64 217 47 123z m-813 -334 c141 -60 334 -131 409 -150 41 -11 135
-26 209 -34 73 -8 136 -17 139 -20 14 -14 -20 -23 -100 -29 -47 -3 -106 -10
-130 -15 -89 -20 -306 -51 -383 -54 -102 -5 -74 3 145 43 96 17 184 35 195 39
15 6 -9 17 -95 45 -165 55 -480 186 -480 201 0 10 20 4 91 -26z m2371 -188
c23 -9 32 -26 71 -148 25 -76 82 -266 127 -423 180 -627 271 -923 391 -1284
39 -114 68 -210 66 -213 -3 -2 -35 1 -73 8 -124 21 -290 -1 -419 -56 -61 -27
-164 -96 -228 -155 -60 -55 -102 -110 -148 -194 l-27 -49 -19 39 c-30 61 -169
298 -289 491 -179 288 -223 356 -260 415 -24 37 -67 107 -95 155 -29 48 -66
111 -84 138 -110 174 -303 537 -327 617 -10 36 -9 40 30 90 233 300 639 541
982 582 59 7 273 -2 302 -13z m-3374 -22 c176 -38 375 -126 695 -307 201 -114
297 -159 427 -200 106 -33 230 -51 230 -32 0 6 26 55 58 110 31 54 77 135 102
179 74 133 123 207 127 193 3 -7 1 -18 -5 -25 -5 -7 -27 -46 -47 -87 -21 -41
-73 -133 -115 -205 -42 -71 -91 -155 -108 -186 -49 -86 -48 -86 -162 -66 -112
19 -243 61 -321 104 -30 17 -90 49 -134 73 -44 24 -127 71 -185 106 -126 74
-327 172 -430 209 -93 33 -232 64 -287 65 -23 0 -44 4 -47 8 -3 5 6 25 20 45
30 45 44 46 182 16z m-52 -115 c158 -33 365 -126 674 -302 196 -112 277 -154
362 -186 72 -27 194 -56 235 -56 54 0 59 -13 28 -72 -45 -86 -180 -283 -294
-428 -195 -248 -371 -447 -691 -780 -300 -312 -363 -382 -531 -591 l-86 -106
-28 65 c-78 179 -304 354 -531 412 -90 23 -254 31 -342 17 l-52 -9 33 74 c19
40 47 100 62 133 343 745 598 1237 848 1635 134 214 130 210 187 210 26 0 83
-7 126 -16z m4113 -2036 c13 -29 41 -98 63 -153 108 -276 210 -494 259 -556
15 -20 25 -40 21 -44 -4 -5 -2 -6 3 -3 6 4 30 -14 55 -38 25 -24 48 -44 52
-44 5 0 8 -7 8 -15 0 -9 12 -21 28 -28 15 -6 70 -48 122 -91 52 -44 100 -83
105 -88 33 -25 149 -132 200 -184 94 -96 104 -110 94 -125 -7 -11 -17 -5 -45
26 -73 81 -102 111 -175 180 -41 38 -73 74 -71 80 2 5 0 7 -4 3 -6 -7 -60 29
-109 73 -11 10 -58 51 -105 91 -126 108 -149 129 -193 176 -41 43 -106 161
-107 195 0 9 -5 17 -12 17 -6 0 -9 3 -5 6 3 4 0 13 -8 21 -8 8 -15 23 -15 34
0 11 -7 30 -15 43 -17 26 -59 123 -131 306 -26 63 -53 127 -60 143 -13 25 -13
27 4 27 12 0 25 -17 41 -52z m-5371 -118 c-17 -33 -35 -57 -41 -53 -5 3 -7 0
-5 -8 3 -8 -51 -126 -120 -262 -94 -187 -128 -245 -134 -233 -11 20 30 99 45
89 6 -4 8 0 4 10 -3 9 0 23 8 31 8 8 15 19 15 25 0 15 64 135 76 143 7 4 15
24 18 43 4 20 13 38 21 41 8 3 17 20 21 37 10 45 46 117 56 111 4 -3 8 1 8 9
0 24 31 77 45 77 9 0 3 -19 -17 -60z m-332 -622 c-8 -18 -18 -44 -21 -57 -6
-18 -9 -20 -16 -10 -7 12 -9 11 -10 -1 -1 -8 -2 -19 -4 -25 -1 -5 -3 -15 -3
-21 -3 -16 -66 -84 -78 -84 -6 0 -23 -11 -39 -26 -48 -44 -37 -19 15 36 27 29
50 57 50 62 0 6 6 8 14 5 8 -3 17 1 20 9 3 8 2 13 -3 10 -5 -3 12 31 37 75 44
78 70 96 38 27z m-166 -252 c0 -2 -8 -10 -17 -17 -16 -13 -17 -12 -4 4 13 16
21 21 21 13z m70 -10 c0 -3 -4 -8 -10 -11 -5 -3 -10 -1 -10 4 0 6 5 11 10 11
6 0 10 -2 10 -4z m-70 -166 c-16 -31 -23 -18 -8 15 7 15 14 23 16 17 2 -6 -2
-21 -8 -32z m-39 -86 c-36 -91 -81 -187 -86 -182 -3 2 10 40 29 84 19 43 41
97 50 118 9 22 19 37 21 34 3 -3 -3 -27 -14 -54z m5682 -95 c12 -7 24 -15 27
-18 3 -3 43 -35 90 -71 82 -62 115 -94 120 -115 1 -5 7 -17 13 -25 6 -8 -11 6
-39 31 -27 25 -76 68 -109 95 -32 27 -68 57 -80 66 -11 10 -29 24 -40 32 -24
18 -13 21 18 5z m-5048 -108 c-25 -22 -338 -181 -357 -181 -21 1 57 46 206
121 128 64 175 83 151 60z m7685 -2460 c13 -25 13 -41 -1 -41 -6 0 -13 9 -16
20 -3 11 -9 20 -14 20 -5 0 -9 5 -9 10 0 18 29 11 40 -9z m3 -171 c45 -13 69
-47 86 -126 13 -55 8 -82 -9 -54 -7 12 -33 15 -117 15 -91 0 -119 -5 -179 -26
-81 -30 -200 -105 -245 -156 l-29 -34 -17 38 c-29 69 -29 117 1 167 47 81 143
150 256 183 51 15 193 11 253 -7z"/>
<path d="M9388 14383 c7 -3 16 -2 19 1 4 3 -2 6 -13 5 -11 0 -14 -3 -6 -6z"/>
<path d="M9400 14260 c-22 -41 39 -90 75 -60 20 17 19 23 -11 54 -32 31 -50
33 -64 6z"/>
<path d="M6568 13915 c6 -11 21 -29 34 -40 22 -19 22 -19 -2 10 -40 48 -43 51
-32 30z"/>
<path d="M6630 13846 c0 -2 7 -9 15 -16 9 -7 15 -8 15 -2 0 5 -7 12 -15 16 -8
3 -15 4 -15 2z"/>
<path d="M6680 13790 c0 -5 5 -10 11 -10 5 0 7 5 4 10 -3 6 -8 10 -11 10 -2 0
-4 -4 -4 -10z"/>
<path d="M3420 13679 c-36 -17 -81 -37 -100 -44 -21 -8 -27 -14 -16 -14 19 -1
173 64 191 80 18 17 -10 9 -75 -22z"/>
<path d="M5882 10777 c30 -29 67 -67 82 -86 15 -18 29 -31 32 -28 11 11 -28
67 -77 110 -74 65 -104 68 -37 4z"/>
<path d="M9542 16428 c-26 -26 -1 -97 30 -85 25 9 32 56 12 78 -20 22 -26 23
-42 7z"/>
<path d="M9631 16281 c-25 -16 -1 -47 61 -76 76 -36 130 -90 146 -144 17 -56
55 -97 107 -117 39 -15 55 -15 115 -5 96 15 125 14 170 -9 32 -16 40 -27 46
-57 9 -53 22 -73 45 -73 27 0 43 40 35 85 -9 48 -68 112 -114 125 -52 14 -137
12 -207 -5 -81 -19 -84 -19 -96 13 -35 92 -74 155 -119 194 -71 61 -154 91
-189 69z"/>
<path d="M6539 16211 c-56 -18 -149 -89 -149 -115 0 -6 13 6 30 25 36 45 113
78 206 88 l69 8 -65 1 c-36 0 -77 -3 -91 -7z"/>
<path d="M11703 16133 c-60 -106 -95 -191 -122 -298 -34 -136 -34 -143 -14
-153 52 -27 166 -37 408 -36 217 0 266 3 370 23 66 13 123 25 127 27 5 3 8 85
8 183 l0 178 -94 6 c-136 9 -279 41 -446 99 -80 27 -154 52 -166 55 -17 4 -29
-9 -71 -84z"/>
<path d="M6711 16206 c2 -2 22 -6 44 -9 28 -5 34 -4 20 3 -19 8 -73 14 -64 6z"/>
<path d="M5477 16073 c18 -2 50 -2 70 0 21 2 7 4 -32 4 -38 0 -55 -2 -38 -4z"/>
<path d="M5376 16050 c-27 -11 -54 -24 -60 -30 -10 -11 14 -2 94 33 50 22 25
20 -34 -3z"/>
<path d="M5234 15967 c-69 -51 -156 -143 -229 -242 -56 -75 -148 -242 -142
-258 2 -6 26 36 55 94 81 165 190 295 352 421 56 44 28 32 -36 -15z"/>
<path d="M6150 15936 c0 -2 8 -10 18 -17 15 -13 16 -12 3 4 -13 16 -21 21 -21
13z"/>
<path d="M6238 15844 c27 -34 75 -101 107 -150 72 -110 88 -128 45 -49 -19 33
-37 62 -40 65 -4 3 -14 19 -23 35 -8 17 -43 59 -77 95 l-62 65 50 -61z"/>
<path d="M6035 15810 c3 -5 8 -10 11 -10 2 0 4 5 4 10 0 6 -5 10 -11 10 -5 0
-7 -4 -4 -10z"/>
<path d="M10573 15763 c-25 -9 -12 -34 36 -68 88 -63 105 -116 71 -211 -34
-95 -35 -103 -10 -129 61 -65 269 -76 245 -13 -8 20 -18 24 -104 37 -36 6 -68
14 -72 18 -4 4 1 33 11 63 27 78 25 128 -7 190 -41 78 -121 131 -170 113z"/>
<path d="M7395 15710 c3 -5 8 -10 11 -10 2 0 4 5 4 10 0 6 -5 10 -11 10 -5 0
-7 -4 -4 -10z"/>
<path d="M2 15674 l3 -37 90 -22 c119 -30 163 -47 228 -88 101 -65 119 -119
88 -264 -12 -56 -16 -63 -37 -63 -29 0 -29 3 -3 117 25 110 17 163 -11 66 -9
-34 -25 -83 -35 -108 -16 -43 -19 -46 -44 -40 -14 4 -27 7 -28 8 -1 1 8 40 18
85 32 134 20 155 -20 37 -19 -55 -35 -101 -36 -102 -1 -2 -35 8 -76 21 -41 13
-89 27 -106 31 l-33 7 0 -56 0 -55 73 -21 c183 -52 380 -141 515 -232 115 -78
140 -100 146 -131 2 -12 12 -62 21 -112 39 -204 39 -203 16 -316 -24 -121 -25
-127 -9 -111 7 7 15 12 19 12 15 0 -5 -88 -32 -145 -32 -66 -49 -89 -93 -123
l-29 -23 -31 29 c-113 106 -271 194 -470 262 -65 22 -120 40 -122 40 -2 0 -4
-61 -4 -136 l0 -136 38 23 c20 12 54 36 75 52 l39 30 50 -21 c93 -39 232 -122
286 -170 l54 -47 -17 -100 c-16 -100 -63 -312 -73 -329 -3 -5 -36 52 -74 127
-74 149 -84 157 -132 112 -38 -35 -109 -75 -180 -101 l-61 -22 -3 -176 -2
-177 37 7 c57 10 156 60 193 96 17 18 43 52 57 76 14 24 29 40 33 35 4 -4 24
-45 43 -90 40 -91 40 -82 -10 -238 -30 -93 -58 -145 -80 -145 -8 0 -32 -18
-54 -40 -23 -23 -55 -44 -79 -50 -22 -6 -40 -15 -40 -20 0 -6 -17 -10 -38 -10
-21 0 -43 -5 -50 -12 -8 -8 -12 -48 -12 -115 0 -96 1 -103 20 -103 24 0 128
38 155 56 44 31 46 9 6 -107 -65 -192 -96 -246 -152 -269 -26 -11 -29 -17 -29
-56 0 -24 5 -44 10 -44 13 0 13 -46 0 -71 -6 -10 -9 -60 -8 -111 l3 -91 43 61
c66 94 126 239 222 532 210 646 328 1067 355 1271 5 42 10 49 54 77 95 58 172
185 242 391 54 163 65 245 45 341 -23 111 -59 174 -145 261 -70 70 -195 162
-300 220 -49 27 -46 3 -21 189 12 90 -3 155 -49 211 -64 76 -197 142 -353 173
-103 21 -100 22 -96 -20z"/>
<path d="M10455 15700 c-21 -34 46 -160 85 -160 39 0 17 88 -35 145 -26 27
-40 31 -50 15z"/>
<path d="M7420 15696 c0 -2 8 -10 18 -17 15 -13 16 -12 3 4 -13 16 -21 21 -21
13z"/>
<path d="M8885 15655 c-5 -2 -36 -9 -68 -15 -56 -11 -70 -30 -22 -30 68 0 229
-94 332 -193 78 -75 125 -144 152 -225 25 -73 26 -107 6 -146 -18 -35 -15 -41
11 -22 16 12 19 27 19 106 0 89 1 92 28 108 33 20 52 79 42 136 -27 174 -188
287 -403 285 -48 0 -91 -2 -97 -4z m235 -62 c131 -35 231 -147 234 -261 1 -37
-25 -92 -43 -92 -5 0 -26 28 -48 63 -72 114 -195 226 -316 287 -15 7 -23 16
-17 20 16 10 129 0 190 -17z"/>
<path d="M7490 15636 c0 -2 8 -10 18 -17 15 -13 16 -12 3 4 -13 16 -21 21 -21
13z"/>
<path d="M6899 15569 c25 -5 89 -22 144 -39 54 -17 101 -30 103 -28 2 2 -36
17 -84 32 -135 44 -143 46 -176 45 -26 -1 -24 -3 13 -10z"/>
<path d="M5268 15513 c-15 -37 -296 -419 -367 -499 -20 -22 -52 -59 -71 -82
-19 -23 -42 -42 -50 -42 -10 0 -11 3 -3 8 6 4 14 25 18 47 4 22 13 51 20 65
16 33 29 101 15 80 -5 -8 -10 -22 -10 -30 0 -8 -7 -28 -15 -44 -8 -15 -15 -36
-15 -45 0 -10 -7 -26 -16 -37 -36 -45 10 279 60 426 27 77 33 107 16 79 -18
-31 -61 -180 -76 -262 -41 -228 -35 -408 22 -657 5 -25 5 -24 -20 5 -15 17
-49 75 -76 129 -53 106 -63 115 -30 27 30 -78 66 -148 116 -221 45 -68 104
-132 104 -113 0 5 -9 18 -20 28 -11 10 -20 23 -20 29 0 6 -7 24 -15 40 -16 30
-69 315 -60 324 2 2 7 -14 11 -37 9 -54 20 -52 29 7 4 26 11 54 16 63 11 21
80 49 119 49 34 0 37 -6 14 -31 -40 -44 -58 -185 -32 -246 16 -38 38 -63 55
-63 10 0 7 9 -11 31 -22 25 -26 41 -26 89 0 38 5 64 15 73 7 8 17 26 21 41 5
22 9 24 21 14 11 -9 13 -23 8 -53 -14 -97 42 -130 75 -45 l18 45 7 -37 c11
-55 -2 -104 -37 -143 -36 -42 -18 -47 21 -6 35 37 51 92 51 172 l0 63 35 -34
c19 -19 35 -30 35 -26 0 25 -58 117 -98 156 -56 53 -176 108 -197 90 -8 -6
-26 -10 -42 -8 l-28 3 44 45 c24 25 55 59 68 77 l25 32 53 -24 c30 -13 85 -44
123 -68 63 -41 70 -49 82 -93 29 -112 75 -222 87 -211 2 3 -5 22 -16 43 -43
82 -67 226 -70 409 -2 155 14 334 35 389 13 34 -4 14 -18 -21z m-42 -331 l0
-199 -55 39 c-30 21 -79 46 -110 55 -31 9 -58 18 -60 19 -3 2 46 71 59 84 3 3
21 25 40 50 28 36 122 150 124 150 1 0 1 -89 2 -198z m-128 -405 c2 -12 -3
-17 -17 -17 -12 0 -21 6 -21 13 0 31 32 34 38 4z"/>
<path d="M7620 15536 c0 -3 9 -10 20 -16 11 -6 20 -8 20 -6 0 3 -9 10 -20 16
-11 6 -20 8 -20 6z"/>
<path d="M7198 15483 c7 -3 16 -2 19 1 4 3 -2 6 -13 5 -11 0 -14 -3 -6 -6z"/>
<path d="M7245 15470 c11 -5 27 -9 35 -9 9 0 8 4 -5 9 -11 5 -27 9 -35 9 -9 0
-8 -4 5 -9z"/>
<path d="M5738 15240 c-4 -113 -14 -258 -23 -324 -9 -65 -14 -120 -11 -123 2
-2 7 13 11 35 7 45 24 52 119 52 l51 0 33 -69 c18 -38 40 -72 47 -75 8 -3 -1
22 -20 58 -19 34 -35 72 -35 83 0 12 -4 23 -10 25 -17 5 -85 217 -114 353 -15
72 -30 144 -35 160 -5 19 -10 -48 -13 -175z m51 -102 c7 -24 25 -79 41 -123
16 -44 30 -86 32 -94 2 -10 -14 -15 -66 -18 l-69 -5 6 31 c4 17 12 81 19 141
7 61 15 110 18 110 4 0 12 -19 19 -42z"/>
<path d="M11935 15430 c-113 -18 -225 -107 -225 -178 0 -45 29 -37 82 22 47
53 155 136 177 136 13 0 24 17 14 22 -5 3 -26 1 -48 -2z"/>
<path d="M6207 15300 c3 -36 9 -119 14 -185 8 -119 8 -119 3 30 -2 83 -9 166
-14 185 -7 27 -8 20 -3 -30z"/>
<path d="M7998 15353 c7 -3 16 -2 19 1 4 3 -2 6 -13 5 -11 0 -14 -3 -6 -6z"/>
<path d="M12100 15351 c-88 -27 -189 -108 -247 -198 -36 -57 -42 -88 -17 -97
23 -9 50 9 83 58 76 110 184 173 283 164 43 -5 56 -12 98 -53 55 -54 83 -57
88 -9 9 91 -165 172 -288 135z"/>
<path d="M4900 15240 c-17 -33 -28 -60 -25 -60 2 0 18 27 35 60 17 33 28 60
25 60 -2 0 -18 -27 -35 -60z"/>
<path d="M11090 15219 c0 -31 44 -60 110 -74 19 -4 107 -29 194 -56 167 -51
216 -59 236 -34 10 12 6 18 -22 35 -113 69 -518 170 -518 129z"/>
<path d="M6171 15164 c0 -11 3 -14 6 -6 3 7 2 16 -1 19 -3 4 -6 -2 -5 -13z"/>
<path d="M4852 15140 c-16 -27 -16 -27 15 -27 21 0 23 1 10 9 -9 4 -14 15 -11
23 9 21 1 18 -14 -5z"/>
<path d="M6182 15120 c0 -14 2 -19 5 -12 2 6 2 18 0 25 -3 6 -5 1 -5 -13z"/>
<path d="M5332 14985 c0 -49 3 -112 8 -140 l7 -50 2 55 2 55 44 -86 c32 -63
58 -99 97 -133 29 -25 59 -46 66 -46 8 0 -11 21 -41 46 -31 25 -62 55 -70 67
-31 48 -90 195 -102 257 l-13 65 0 -90z"/>
<path d="M6191 15054 c0 -11 3 -14 6 -6 3 7 2 16 -1 19 -3 4 -6 -2 -5 -13z"/>
<path d="M220 15044 c-14 -16 -12 -34 24 -198 11 -50 12 -82 6 -117 -12 -61
-50 -153 -83 -203 -15 -21 -27 -43 -27 -48 0 -19 66 -48 112 -48 63 0 105 35
122 105 11 42 11 69 -4 175 -28 194 -48 263 -96 319 -29 35 -36 37 -54 15z"/>
<path d="M0 14772 c0 -144 4 -232 10 -232 14 0 35 38 55 99 23 72 16 172 -21
271 -15 41 -31 79 -36 85 -4 5 -8 -95 -8 -223z"/>
<path d="M5610 14927 c0 -31 6 -76 14 -99 7 -24 19 -64 26 -90 12 -46 23 -58
34 -39 3 5 -1 11 -9 15 -8 3 -15 14 -15 25 0 23 -41 234 -46 240 -2 2 -4 -21
-4 -52z"/>
<path d="M5150 14875 c30 -33 56 -62 58 -64 1 -2 2 0 2 5 0 11 -55 71 -90 99
-14 10 0 -7 30 -40z"/>
<path d="M6213 14865 c0 -38 2 -53 4 -32 2 20 2 52 0 70 -2 17 -4 1 -4 -38z"/>
<path d="M543 14867 c-5 -7 -7 -77 -6 -157 2 -124 -1 -160 -22 -248 -32 -132
-33 -182 -3 -201 26 -16 37 -5 73 75 66 145 72 370 14 514 -10 27 -43 37 -56
17z"/>
<path d="M5692 14760 c0 -14 2 -19 5 -12 2 6 2 18 0 25 -3 6 -5 1 -5 -13z"/>
<path d="M5609 14738 c-1 -18 -3 -45 -5 -60 -1 -16 1 -28 7 -28 5 0 9 27 9 60
0 62 -9 85 -11 28z"/>
<path d="M5848 14753 c6 -2 18 -2 25 0 6 3 1 5 -13 5 -14 0 -19 -2 -12 -5z"/>
<path d="M5798 14743 c7 -3 16 -2 19 1 4 3 -2 6 -13 5 -11 0 -14 -3 -6 -6z"/>
<path d="M5725 14725 c-16 -7 -23 -14 -15 -14 8 0 26 6 40 14 32 18 14 18 -25
0z"/>
<path d="M6203 14695 c0 -27 2 -38 4 -22 2 15 2 37 0 50 -2 12 -4 0 -4 -28z"/>
<path d="M4601 14310 c14 -31 19 -36 19 -24 0 6 -7 19 -16 30 -14 18 -14 18
-3 -6z"/>
<path d="M11981 14269 c-268 -30 -532 -158 -720 -349 -46 -47 -100 -110 -121
-140 -89 -131 -165 -326 -195 -502 -19 -106 -21 -291 -6 -389 30 -187 116
-379 241 -544 131 -172 209 -237 375 -316 167 -80 227 -92 455 -93 206 -1 250
5 393 51 l77 26 0 68 0 68 -67 -25 c-98 -37 -258 -64 -384 -64 -336 0 -598
137 -770 405 -54 83 -89 142 -89 148 0 4 -11 30 -24 59 -61 135 -92 308 -83
462 6 105 38 254 63 293 19 31 102 53 197 53 93 0 113 -8 217 -87 109 -82 168
-107 240 -100 71 6 109 26 178 91 77 73 119 160 138 289 18 126 28 161 57 212
31 54 74 81 144 88 32 3 85 14 118 25 l60 18 3 101 c3 115 18 98 -118 133 -90
23 -264 32 -379 19z m278 -129 c99 -11 122 -25 59 -34 -144 -22 -205 -54 -259
-137 -47 -72 -65 -124 -84 -244 -25 -159 -90 -264 -183 -294 -54 -18 -90 -5
-177 65 -129 104 -230 137 -357 116 -32 -5 -58 -7 -58 -5 0 11 38 74 74 123
119 161 299 284 527 359 169 56 294 70 458 51z"/>
<path d="M4640 14261 c0 -6 4 -13 10 -16 6 -3 7 1 4 9 -7 18 -14 21 -14 7z"/>
<path d="M7815 14039 c-44 -6 -115 -10 -157 -11 -43 -1 -78 -3 -78 -5 0 -18
214 -75 370 -98 63 -9 157 -28 209 -41 52 -13 96 -22 99 -20 16 17 -140 58
-330 86 -258 39 -274 57 -60 67 113 5 137 3 198 -15 38 -12 91 -35 117 -52 26
-16 51 -30 55 -30 12 -1 43 -50 38 -59 -3 -4 6 -14 19 -21 42 -22 28 -27 -37
-14 -81 17 -122 17 -238 -1 -52 -8 -137 -20 -188 -27 l-92 -11 53 -21 c233
-95 442 -410 423 -637 -5 -62 -21 -125 -35 -141 -3 -4 -6 37 -6 90 -1 92 -2
101 -41 183 -23 47 -52 95 -64 107 -39 36 -38 20 4 -53 10 -16 29 -54 42 -83
47 -97 43 -265 -8 -319 -44 -47 3 -21 56 30 63 62 86 122 86 227 0 204 -119
412 -318 555 -29 20 -52 39 -50 40 5 5 171 33 234 40 70 8 166 -12 219 -45 64
-40 119 -159 119 -260 1 -42 -6 -66 -26 -101 -15 -26 -34 -49 -43 -53 -21 -8
-19 -26 3 -26 26 0 119 46 174 86 68 50 103 113 102 185 -2 111 -129 286 -267
368 -80 47 -174 83 -227 87 -43 4 -41 3 27 -20 201 -66 372 -218 428 -381 33
-100 1 -167 -118 -246 -32 -21 -60 -39 -63 -39 -2 0 5 18 16 40 47 92 16 236
-80 370 -161 226 -314 298 -565 269z"/>
<path d="M7950 13485 c0 -3 8 -22 19 -43 45 -88 53 -219 19 -309 -53 -144
-143 -243 -292 -322 -87 -46 -45 -53 47 -8 147 72 263 224 303 393 15 65 12
124 -7 124 -5 0 -9 20 -9 43 0 33 -8 55 -30 85 -26 37 -50 54 -50 37z"/>
<path d="M9762 13465 c-44 -37 -61 -91 -72 -228 -10 -116 -55 -487 -65 -534
-5 -22 -9 -23 -123 -23 -64 0 -146 -7 -182 -14 -36 -8 -68 -11 -71 -8 -3 4
-21 61 -39 127 -99 359 -162 451 -290 424 -124 -26 -141 -213 -54 -594 27
-118 32 -152 22 -158 -62 -39 -182 -107 -188 -107 -7 0 -79 99 -158 215 -81
120 -144 163 -212 145 -89 -24 -105 -124 -43 -251 44 -88 125 -220 178 -289
48 -62 53 -81 31 -99 -22 -18 -64 -122 -82 -202 -24 -105 -24 -318 0 -429 86
-399 355 -717 666 -787 36 -8 134 -16 219 -19 l154 -4 28 -49 c46 -81 107
-111 225 -111 111 0 266 65 317 132 32 43 57 118 57 173 l0 43 84 46 c61 34
108 70 166 129 71 70 89 97 135 192 87 181 122 360 111 568 -14 262 -99 514
-218 643 -38 41 -39 43 -23 67 59 90 143 436 132 544 -12 116 -93 169 -165
108 -33 -27 -105 -180 -192 -408 l-53 -137 -51 6 c-28 4 -54 9 -57 13 -4 3 2
85 13 181 25 231 22 553 -6 617 -41 96 -130 132 -194 78z m-153 -869 c16 -19
3 -66 -18 -66 -9 0 -63 -13 -121 -29 -58 -16 -121 -32 -142 -36 l-36 -7 -12
57 c-6 31 -9 59 -6 62 28 29 314 45 335 19z m484 -118 c151 -51 215 -104 278
-230 50 -99 50 -108 -1 -108 -34 0 -40 3 -40 21 0 33 -57 160 -96 212 -41 56
-59 56 -22 0 30 -45 78 -163 85 -208 6 -36 10 -34 -92 -50 -22 -4 -87 -18
-144 -31 -57 -14 -104 -24 -105 -22 -1 2 -15 50 -31 108 -16 61 -51 149 -82
210 -29 58 -53 108 -53 112 0 25 220 15 303 -14z m-323 3 c0 -6 18 -47 39 -93
22 -46 46 -102 55 -125 26 -71 58 -206 49 -213 -4 -4 -62 -22 -128 -40 -66
-18 -162 -48 -213 -65 -51 -18 -94 -30 -96 -26 -2 3 -12 42 -21 86 -24 112
-72 289 -90 332 -8 19 -15 41 -15 48 0 13 75 36 260 79 114 26 160 31 160 17z
m-836 -107 c11 -29 7 -32 -90 -78 -97 -46 -124 -54 -124 -37 0 18 169 131 196
131 7 0 15 -7 18 -16z m407 -36 c26 -96 89 -379 91 -410 3 -32 2 -33 -92 -71
-52 -21 -142 -59 -199 -83 -57 -24 -112 -44 -121 -44 -14 0 -21 12 -28 48 -17
77 -30 199 -37 335 -4 76 -11 127 -17 127 -18 0 -4 -372 17 -458 9 -40 15 -75
13 -76 -15 -13 -338 -146 -354 -146 -19 0 -22 9 -34 90 -16 111 -8 249 19 345
25 90 2 61 -30 -38 -21 -62 -24 -92 -24 -212 0 -84 5 -153 12 -173 12 -31 11
-33 -20 -46 -20 -8 -36 -10 -42 -4 -5 5 -11 60 -13 122 -6 199 33 346 113 429
83 86 320 198 574 272 154 45 158 45 172 -7z m1124 -340 c23 -97 31 -233 16
-242 -6 -4 -35 -10 -64 -13 l-52 -5 -14 73 c-14 79 -60 234 -67 227 -2 -3 13
-68 32 -146 20 -77 34 -147 31 -154 -2 -8 -29 -20 -58 -27 -30 -7 -97 -26
-150 -42 -53 -16 -99 -29 -102 -29 -3 0 -10 30 -16 68 -7 37 -23 109 -36 160
-14 52 -25 99 -25 106 0 20 340 92 442 95 l46 1 17 -72z m-526 -65 c17 -60 63
-294 59 -298 -12 -12 -383 -133 -389 -127 -3 4 -12 41 -18 82 -7 41 -22 111
-33 155 -11 44 -21 86 -21 93 -2 15 90 52 253 101 130 40 137 39 149 -6z
m-434 -125 c14 -59 65 -309 65 -318 0 -6 -10 -15 -22 -20 -279 -112 -351 -140
-357 -136 -15 9 -76 340 -66 357 4 5 11 9 16 9 6 0 43 14 82 32 106 47 240 97
259 98 10 0 20 -10 23 -22z m-415 -142 c0 -27 25 -181 41 -254 12 -51 19 -95
17 -96 -1 -1 -28 -13 -58 -25 -30 -12 -64 -26 -75 -31 -64 -28 -239 -89 -245
-85 -13 8 -39 92 -65 209 -14 60 -25 112 -25 116 0 4 69 35 153 69 83 35 166
69 182 76 56 23 75 29 75 21z m-422 -266 c12 -71 35 -149 66 -221 8 -17 -20
-34 -77 -44 -34 -7 -35 -6 -65 57 -35 73 -82 207 -82 236 0 16 14 25 58 40 31
12 63 20 71 19 10 -1 19 -28 29 -87z m1338 -617 c-3 -10 -9 -36 -15 -58 -22
-86 -141 -157 -274 -163 -48 -3 -89 1 -108 8 -28 12 -79 63 -79 79 0 5 51 20
113 35 61 15 164 47 227 70 133 50 143 52 136 29z"/>
<path d="M11622 13057 c-121 -212 -158 -390 -103 -497 50 -96 99 -124 221
-125 147 0 300 69 633 288 l107 71 0 113 c0 62 -2 113 -5 113 -3 0 -34 -14
-68 -31 -233 -118 -446 -199 -525 -199 -143 0 -216 88 -211 255 1 41 0 77 -3
80 -2 3 -23 -28 -46 -68z"/>
<path d="M2390 12595 c-287 -64 -481 -261 -535 -542 -8 -43 -15 -97 -15 -120
0 -40 2 -42 34 -48 114 -22 435 143 796 408 130 96 260 207 260 222 0 15 -50
36 -153 66 -95 28 -295 35 -387 14z"/>
<path d="M2975 12397 c-391 -347 -846 -607 -1062 -607 l-73 0 0 -37 c0 -41 23
-178 38 -228 30 -97 122 -235 191 -284 l28 -20 219 147 c399 269 520 338 897
516 64 30 117 61 117 68 0 7 -9 48 -20 90 -24 95 -69 203 -111 266 -37 55
-129 152 -144 152 -5 0 -42 -28 -80 -63z"/>
<path d="M3200 11772 c-139 -70 -194 -100 -375 -210 -252 -153 -317 -194 -380
-236 -33 -22 -100 -66 -148 -96 -48 -30 -87 -58 -87 -62 0 -13 71 -44 165 -73
74 -23 115 -29 225 -33 154 -5 249 12 363 67 159 77 300 253 346 433 21 82 32
259 16 264 -5 2 -62 -23 -125 -54z"/>
<path d="M950 11479 c-116 -22 -258 -131 -386 -295 l-65 -83 -47 22 c-69 31
-145 29 -203 -5 -64 -38 -135 -120 -194 -224 l-50 -89 -2 -145 -2 -145 23 66
c86 241 230 459 303 459 31 0 103 -30 103 -42 0 -6 -29 -63 -64 -127 -35 -64
-97 -192 -136 -286 -68 -159 -90 -198 -98 -174 -2 5 28 94 67 198 39 103 71
192 71 197 0 34 -101 -181 -146 -310 -13 -38 -29 -75 -36 -83 -9 -11 -9 -16 3
-24 8 -5 20 -9 27 -9 18 0 15 -59 -3 -66 -19 -8 -85 23 -85 39 0 7 4 17 9 23
6 5 28 64 50 132 22 68 52 152 66 187 14 35 25 69 25 77 -2 37 -115 -230 -160
-374 -21 -69 -27 -125 -11 -100 7 11 16 10 50 -7 22 -12 41 -26 41 -31 0 -13
-31 -90 -37 -90 -2 0 -17 7 -33 15 l-30 16 0 -86 c0 -47 4 -85 9 -85 5 0 16
-6 24 -14 11 -11 12 -29 4 -88 -15 -119 -3 -341 23 -423 49 -157 105 -212 327
-323 87 -44 198 -94 247 -111 203 -72 342 -28 536 168 98 99 150 165 237 306
34 55 67 105 73 112 12 15 -1 20 240 -87 102 -45 264 -115 360 -156 96 -41
193 -83 215 -93 22 -11 69 -31 105 -46 36 -15 82 -34 104 -43 21 -9 81 -35
135 -57 76 -33 96 -45 95 -61 -1 -10 -15 -73 -32 -139 -53 -203 -75 -354 -76
-510 -1 -179 20 -256 90 -334 46 -52 130 -97 519 -282 76 -36 189 -34 268 4
105 52 288 245 386 407 18 30 34 56 36 58 1 1 23 -3 48 -10 55 -14 98 -4 169
41 66 42 123 133 209 331 87 202 137 354 145 440 11 120 -41 233 -122 262 -22
8 -33 17 -29 26 18 46 47 185 57 271 22 187 -19 369 -101 451 -50 49 -91 71
-246 132 -55 22 -147 58 -205 81 -91 36 -115 41 -185 42 -66 0 -90 -5 -137
-27 -69 -32 -195 -150 -286 -268 -73 -95 -202 -289 -229 -344 -9 -20 -24 -36
-33 -36 -9 0 -101 36 -205 81 -105 44 -305 127 -445 185 -140 58 -280 115
-310 128 -30 14 -113 47 -185 76 -71 28 -133 54 -137 58 -4 4 5 48 21 97 97
308 107 639 24 799 -25 48 -119 141 -161 159 -117 51 -412 159 -478 177 -85
22 -88 22 -154 9z m-10 -126 c-114 -75 -319 -366 -507 -720 -24 -46 -48 -83
-54 -83 -17 0 -9 59 16 127 112 298 431 695 555 692 9 0 6 -6 -10 -16z m299
-265 c-65 -64 -185 -212 -231 -288 -9 -14 -41 -65 -73 -114 -99 -154 -220
-401 -269 -546 -105 -316 -139 -666 -81 -830 17 -49 13 -61 -14 -36 -80 72
-75 428 10 741 85 312 186 530 372 800 131 189 231 295 293 311 12 3 25 12 28
20 3 8 13 14 23 14 12 0 -8 -25 -58 -72z m-259 -37 c0 -5 -15 -29 -33 -53 -18
-24 -43 -60 -56 -80 -23 -38 -41 -49 -41 -25 0 19 67 129 91 150 23 19 39 22
39 8z m-184 -51 c-32 -48 -43 -52 -20 -7 21 40 35 59 42 52 3 -2 -7 -23 -22
-45z m590 -724 c38 -19 114 -53 169 -76 55 -23 152 -64 215 -90 63 -27 176
-73 250 -103 74 -31 218 -90 320 -132 102 -42 262 -108 355 -147 94 -38 187
-77 208 -86 20 -8 37 -18 37 -21 0 -3 -17 -40 -38 -81 -25 -49 -42 -74 -52
-72 -8 2 -166 63 -350 137 -396 157 -597 235 -607 235 -17 0 36 -29 92 -49 33
-13 64 -26 70 -30 5 -4 75 -34 155 -66 80 -32 163 -66 185 -75 22 -10 130 -52
240 -95 110 -42 204 -80 208 -85 15 -14 -3 -50 -24 -50 -11 0 -106 34 -212 76
-105 42 -244 96 -307 121 -63 24 -154 60 -202 79 -49 19 -91 34 -94 34 -4 0
-31 11 -60 25 -30 14 -68 28 -86 31 -24 4 -17 -2 27 -21 33 -14 74 -32 90 -40
17 -8 102 -44 190 -81 88 -36 174 -71 190 -79 17 -7 48 -20 70 -28 22 -8 96
-37 165 -64 69 -28 149 -58 178 -69 45 -15 51 -21 46 -38 -3 -12 -10 -25 -15
-30 -8 -9 -65 9 -144 45 -145 65 -371 146 -380 137 -8 -7 314 -145 453 -194
40 -15 52 -23 52 -40 0 -11 -3 -23 -6 -26 -3 -3 -40 9 -82 27 -42 18 -149 63
-237 100 -150 63 -268 113 -360 155 -121 54 -820 362 -878 386 -86 36 -101 58
-94 133 10 111 72 226 140 263 43 23 43 23 123 -16z m-1185 -134 c-16 -70 -39
-167 -50 -217 -17 -79 -19 -85 -20 -45 -2 89 55 351 87 405 17 28 10 -31 -17
-143z m3419 127 c0 -6 -29 -43 -65 -82 -35 -39 -86 -102 -112 -140 -26 -38
-75 -97 -108 -130 -33 -34 -74 -82 -92 -107 -106 -147 -230 -376 -304 -557
-18 -46 -37 -83 -42 -83 -35 0 104 348 220 549 35 59 174 274 182 281 4 3 30
35 58 71 58 74 140 147 205 184 48 28 58 30 58 14z m490 -156 c0 -5 -19 -19
-41 -33 -110 -67 -379 -427 -488 -652 -12 -27 -24 -48 -26 -48 -2 0 -11 -3
-20 -6 -15 -6 -16 0 -10 62 5 53 16 86 47 144 115 213 306 424 458 505 67 36
80 40 80 28z m-390 -109 c0 -3 -33 -44 -72 -91 -50 -60 -74 -81 -76 -70 -7 35
95 167 129 167 11 0 19 -3 19 -6z m387 -516 c57 -27 56 -54 -2 -73 -113 -38
-270 -317 -361 -643 -35 -123 -44 -208 -32 -317 3 -26 -1 -30 -22 -32 -14 -2
-45 7 -70 20 l-45 22 1 85 c2 242 200 737 365 911 62 65 79 68 166 27z m89
-163 c26 -14 55 -25 65 -25 36 0 28 -20 -34 -83 -55 -56 -167 -206 -167 -224
0 -4 -6 -14 -13 -22 -32 -39 -127 -350 -127 -417 0 -13 -3 -24 -6 -24 -3 0
-33 14 -65 31 -69 37 -69 36 -34 173 70 268 199 538 287 599 31 22 40 21 94
-8z m-716 -13 c0 -10 -11 -41 -24 -68 -14 -28 -43 -99 -66 -157 -41 -105 -60
-131 -60 -84 0 34 30 116 83 230 43 91 67 120 67 79z m900 -109 c-1 -26 -53
-127 -67 -131 -27 -8 -5 94 28 135 16 19 39 16 39 -4z m-1500 -93 c0 -6 -4
-18 -9 -28 -5 -9 -12 -26 -16 -36 -11 -36 -14 -10 -3 32 9 37 28 59 28 32z
m1370 -155 c10 -30 8 -46 -9 -105 -23 -74 -55 -110 -97 -110 -57 0 -68 84 -23
173 31 62 48 77 85 77 28 0 34 -4 44 -35z m-981 -169 c-9 -8 -10 -7 -5 7 3 10
7 24 7 30 1 7 3 4 6 -7 3 -10 -1 -23 -8 -30z m-52 -233 c-3 -10 -5 -2 -5 17 0
19 2 27 5 18 2 -10 2 -26 0 -35z m-29 -270 c-2 -76 1 -157 5 -180 10 -52 -4
-58 -24 -10 -18 42 -18 217 0 280 7 26 16 47 18 47 2 0 3 -62 1 -137z"/>
<path d="M1440 10136 c0 -15 375 -164 385 -154 3 3 -18 15 -47 27 -29 12 -62
26 -73 31 -11 4 -54 21 -95 36 -41 15 -94 35 -117 45 -43 19 -53 22 -53 15z"/>
<path d="M1467 9891 c90 -40 130 -50 118 -32 -3 5 -18 12 -35 16 -16 3 -46 15
-67 25 -21 9 -54 21 -73 24 -20 4 4 -10 57 -33z"/>
<path d="M2045 9880 c27 -12 43 -12 25 0 -8 5 -22 9 -30 9 -10 0 -8 -3 5 -9z"/>
<path d="M2205 9818 c44 -18 82 -35 85 -38 6 -7 266 -110 277 -110 15 1 -42
28 -182 85 -77 31 -152 63 -167 70 -15 7 -42 16 -60 19 -18 4 3 -8 47 -26z"/>
<path d="M3979 9422 c-2 -5 -20 -29 -39 -52 -91 -112 -175 -282 -245 -499 -53
-167 -93 -351 -76 -351 4 0 16 37 26 83 29 128 99 354 144 463 46 110 127 258
174 317 16 21 27 40 24 43 -3 3 -7 1 -8 -4z"/>
<path d="M3957 8963 c-36 -72 -91 -253 -77 -253 9 0 103 270 96 277 -2 3 -11
-8 -19 -24z"/>
<path d="M12198 10866 c-55 -20 -85 -42 -116 -85 -27 -37 -35 -58 -83 -219
-18 -60 -29 -79 -63 -108 -78 -67 -116 -79 -251 -78 -181 0 -186 2 -224 78
-17 35 -50 81 -72 101 -49 44 -152 95 -208 102 -119 16 -205 -77 -282 -307
-35 -105 -41 -115 -73 -132 -20 -10 -42 -31 -50 -47 l-15 -28 -104 5 c-227 10
-433 -72 -488 -193 -37 -81 -19 -217 38 -289 75 -93 230 -85 335 18 20 20 39
36 42 36 17 0 -85 -169 -159 -260 -28 -36 -79 -105 -112 -155 -108 -162 -179
-224 -494 -437 -213 -143 -305 -240 -352 -366 -30 -82 -30 -235 1 -313 31 -79
94 -163 137 -183 20 -10 55 -30 78 -45 54 -36 226 -97 301 -106 57 -7 58 -7
47 13 -7 14 -8 23 -1 27 5 3 10 0 10 -8 0 -7 19 -24 42 -37 34 -19 61 -24 144
-28 l102 -5 -4 47 c-4 43 -3 46 20 46 19 0 25 -7 30 -34 6 -30 13 -36 53 -50
26 -9 79 -16 120 -16 83 0 104 14 113 73 6 39 44 50 66 19 25 -36 90 -54 163
-46 121 12 157 38 153 107 -3 33 7 34 54 2 20 -14 47 -25 60 -25 42 0 133 41
158 71 22 25 24 33 14 60 -15 43 1 55 42 34 51 -26 116 -22 164 12 40 28 41
31 44 92 3 64 16 76 37 34 24 -47 35 -54 64 -38 14 7 39 26 55 41 27 25 28 30
22 85 -8 70 7 79 47 28 l25 -32 56 44 c64 50 116 138 116 198 0 27 3 32 12 23
6 -6 13 -22 15 -34 2 -13 10 -29 17 -37 12 -11 21 -8 61 19 54 37 61 51 64
133 1 25 20 21 44 -9 26 -33 44 -30 171 31 l96 46 0 60 c0 42 -4 59 -13 59
-19 0 -127 -45 -221 -92 -86 -43 -331 -201 -356 -229 -8 -10 -53 -48 -100 -86
-324 -262 -633 -420 -943 -484 -275 -56 -666 -52 -930 11 -275 64 -408 194
-394 384 7 101 42 118 125 63 31 -21 51 -55 112 -194 18 -41 30 -55 59 -66
102 -41 402 -46 661 -12 344 46 701 197 975 412 109 86 335 320 502 518 209
249 379 411 495 471 25 13 28 20 28 65 0 47 -1 49 -21 39 -32 -18 -34 -4 -5
30 l26 32 0 189 0 190 -59 -73 c-137 -171 -451 -621 -551 -788 -93 -157 -136
-252 -166 -366 -17 -67 -53 -109 -194 -228 -108 -91 -158 -122 -172 -108 -14
14 14 177 51 289 16 48 27 91 25 95 -2 3 -23 9 -47 13 -51 8 -91 19 -222 57
-120 36 -155 53 -155 75 0 23 58 117 80 131 13 8 64 5 206 -13 245 -32 284
-32 312 -2 24 26 29 55 10 62 -7 3 -107 22 -222 43 -115 21 -211 42 -213 48
-4 12 83 143 106 161 23 18 47 16 241 -17 224 -38 262 -39 289 -4 26 33 27 51
3 58 -11 4 -115 26 -232 50 -118 24 -216 49 -218 55 -5 14 60 102 99 136 38
31 48 31 217 -1 85 -16 177 -27 242 -28 129 -1 117 -9 312 202 78 86 169 183
200 216 42 45 58 69 58 89 l0 29 -62 -52 c-133 -109 -212 -151 -283 -149 -25
0 -20 3 25 18 30 9 66 23 80 31 35 18 179 132 213 167 l27 29 -2 244 -3 243
-53 30 c-64 36 -163 46 -224 23z m241 -115 c34 -24 36 -36 6 -49 -33 -15 -41
-37 -54 -165 -22 -203 -74 -305 -182 -360 -102 -51 -222 -59 -439 -27 -264 38
-404 19 -501 -68 -27 -24 -49 -47 -49 -51 0 -4 22 -16 50 -28 53 -23 74 -59
50 -88 -17 -21 -36 -19 -111 10 -35 14 -100 32 -144 40 -44 7 -88 17 -97 20
-26 10 -22 -5 11 -51 40 -55 137 -245 157 -309 16 -50 16 -55 0 -80 -13 -19
-24 -25 -44 -23 -23 3 -31 16 -82 145 -87 215 -152 312 -201 300 -28 -7 -91
-58 -204 -165 -44 -41 -105 -92 -135 -111 -48 -32 -63 -36 -117 -36 -52 0 -66
4 -89 25 -42 39 -64 96 -64 171 0 55 4 73 26 105 32 47 46 58 104 85 98 45
186 60 328 57 l134 -3 13 33 c38 89 173 43 149 -51 l-6 -27 73 0 c41 0 92 -3
113 -7 29 -4 37 -3 32 6 -5 7 6 30 26 55 93 123 234 151 547 111 183 -23 330
-18 391 13 65 34 115 86 145 154 22 48 28 83 36 185 4 69 13 141 19 159 19 56
55 64 109 25z m-1191 -192 c97 -42 163 -123 178 -217 l6 -39 -41 -7 c-106 -17
-230 -95 -270 -170 -13 -23 -20 -26 -68 -26 l-53 0 -6 41 c-5 30 -16 48 -44
70 l-38 30 29 77 c97 255 162 305 307 241z m496 -480 c14 -7 27 -17 30 -24 15
-40 -78 -113 -186 -146 -66 -20 -72 -21 -104 -5 -37 17 -45 48 -21 78 19 25
116 79 167 94 58 16 83 17 114 3z m-617 -199 c-3 -23 -13 -53 -24 -68 l-18
-27 -3 30 c-5 43 16 105 35 105 13 0 15 -8 10 -40z m-267 18 c0 -17 -88 -60
-95 -47 -9 14 4 30 39 45 39 17 56 17 56 2z m-113 -80 c6 -7 18 -37 28 -66
l17 -54 62 7 c33 4 63 9 65 11 2 2 -1 15 -7 29 -7 14 -12 33 -12 41 0 23 37
-1 45 -28 4 -13 13 -38 22 -56 22 -50 6 -62 -78 -62 -38 0 -69 -4 -69 -9 0 -6
15 -36 34 -68 43 -74 51 -100 36 -118 -10 -12 -9 -15 8 -15 30 0 44 -23 32
-54 -13 -36 -36 -43 -76 -21 -27 14 -46 17 -94 12 -33 -4 -71 -9 -84 -13 l-24
-6 35 -79 c20 -46 32 -88 28 -99 -4 -13 0 -20 14 -25 36 -11 45 -32 27 -60 -9
-14 -24 -25 -32 -25 -15 0 -337 162 -360 181 -17 14 -5 49 20 60 17 8 43 -1
131 -45 61 -29 112 -52 114 -50 2 2 -7 28 -20 59 -24 55 -50 70 -76 44 -17
-17 -77 -7 -81 14 -3 13 11 24 52 43 59 27 60 30 25 95 -12 24 12 69 37 69 16
0 53 -72 54 -104 0 -14 5 -17 23 -12 12 3 61 11 108 18 l85 12 -36 60 c-21 34
-40 71 -44 84 -9 26 -9 26 -72 7 -27 -8 -61 -15 -76 -15 -64 0 -9 58 75 81 29
8 38 14 34 27 -30 103 -31 110 -18 126 16 19 35 20 48 4z m528 -106 c7 -32 -8
-110 -29 -151 -8 -14 -39 -54 -70 -89 -30 -34 -74 -87 -97 -118 -38 -49 -66
-74 -84 -74 -14 0 62 99 126 165 86 89 110 137 117 226 5 73 25 95 37 41z
m-935 -531 c0 -5 -21 -35 -46 -66 l-46 -57 38 -40 c63 -65 105 -79 282 -90
125 -8 164 -7 196 4 51 16 223 14 324 -6 40 -8 76 -17 79 -20 15 -15 -11 -16
-107 -6 -141 14 -226 12 -285 -6 -40 -12 -76 -14 -175 -9 -184 10 -252 27
-306 79 -24 24 -44 50 -44 59 0 9 -3 17 -6 17 -3 0 -48 -33 -100 -72 -52 -40
-155 -118 -229 -172 -74 -55 -135 -105 -135 -112 0 -21 50 -53 109 -71 36 -11
92 -17 156 -17 88 0 125 6 305 51 328 83 383 88 434 34 33 -34 44 -33 153 23
79 39 93 43 93 23 0 -15 -179 -115 -221 -124 -23 -4 -30 0 -43 26 -30 57 -84
55 -374 -19 -218 -56 -329 -72 -414 -60 -139 20 -258 84 -258 139 0 10 144
120 260 200 107 74 185 137 272 221 46 44 84 80 86 80 1 0 2 -4 2 -9z m588
-59 c2 -16 -14 -40 -54 -82 -50 -53 -84 -74 -84 -53 0 3 25 32 55 64 32 33 55
67 55 79 0 28 24 21 28 -8z m442 -323 c0 -26 -280 -285 -489 -453 -84 -67
-178 -123 -188 -112 -9 9 16 33 123 121 56 46 114 94 130 107 38 32 366 320
382 335 17 16 42 17 42 2z"/>
<path d="M10453 10000 c-153 -35 -206 -83 -189 -175 7 -36 50 -75 83 -75 29 1
94 34 154 81 119 93 229 182 229 186 0 11 -208 -2 -277 -17z m141 -41 c-9 -16
-106 -84 -166 -118 -36 -21 -67 -31 -85 -29 -25 3 -28 7 -28 43 0 38 3 41 47
63 46 23 216 64 231 55 4 -2 5 -9 1 -14z"/>
<path d="M11030 10420 c-11 -16 -30 -55 -40 -86 -20 -57 -18 -92 4 -106 21
-14 83 -8 99 10 23 26 57 110 57 143 0 67 -81 94 -120 39z m69 -24 c12 -14 7
-34 -26 -103 -20 -43 -58 -47 -50 -5 8 41 45 122 55 122 5 0 15 -6 21 -14z"/>
<path d="M11647 10049 c-50 -12 -127 -52 -151 -78 -19 -21 -19 -22 0 -36 10
-8 28 -12 39 -9 113 29 216 93 194 120 -13 16 -27 16 -82 3z"/>
<path d="M12444 9327 c-57 -41 -158 -138 -197 -190 -49 -65 -100 -166 -138
-271 -16 -45 -29 -82 -29 -84 0 -2 12 6 26 17 15 12 31 21 37 21 6 0 29 8 51
19 23 10 94 42 159 72 106 47 140 70 125 85 -3 3 -48 -16 -101 -41 -92 -44
-177 -78 -177 -71 0 2 63 68 140 147 l140 144 0 88 c0 48 -1 87 -2 87 -2 -1
-17 -11 -34 -23z"/>
<path d="M12036 8883 c-6 -14 -5 -15 5 -6 7 7 10 15 7 18 -3 3 -9 -2 -12 -12z"/>
<path d="M11898 8775 c-10 -13 -18 -28 -18 -33 0 -5 -23 -46 -50 -92 -28 -45
-49 -84 -47 -86 5 -5 79 112 111 175 29 59 31 72 4 36z"/>
<path d="M11975 8759 c-4 -6 -5 -12 -2 -15 2 -3 7 2 10 11 7 17 1 20 -8 4z"/>
<path d="M11945 8699 c-4 -6 -5 -12 -2 -15 2 -3 7 2 10 11 7 17 1 20 -8 4z"/>
<path d="M570 8674 c-59 -8 -259 -54 -318 -74 -66 -21 -161 -59 -214 -85 l-38
-19 0 -73 c0 -40 2 -73 5 -73 3 0 40 18 83 39 42 22 95 42 117 46 22 4 64 17
92 31 61 27 252 78 262 69 3 -4 -5 -15 -19 -25 l-24 -18 50 -15 c27 -9 115
-38 197 -66 148 -52 202 -58 195 -24 -3 17 -112 63 -227 97 -129 37 -100 66
53 54 304 -24 639 -158 787 -313 67 -70 101 -126 94 -152 -8 -35 16 -38 114
-14 48 11 90 21 94 21 3 0 -23 -29 -60 -65 -36 -36 -63 -68 -60 -72 4 -3 -2
-18 -13 -33 -11 -16 -20 -35 -20 -44 0 -39 -128 -214 -218 -299 -75 -69 -103
-80 -197 -77 -183 7 -217 3 -315 -30 -81 -28 -112 -33 -213 -36 -124 -4 -154
-12 -236 -63 -25 -15 -75 -39 -111 -54 -57 -22 -104 -31 -289 -53 -34 -4 -54
-15 -92 -51 l-49 -46 0 -146 0 -146 19 29 c11 16 55 66 100 111 106 110 151
129 306 128 61 -1 143 -8 183 -17 133 -29 146 -26 261 58 56 41 118 80 139 88
66 22 157 15 297 -25 118 -34 135 -36 188 -27 41 6 73 20 107 45 68 50 136 78
157 66 20 -10 5 -18 307 161 109 65 203 118 210 118 6 0 19 -19 29 -41 17 -39
17 -43 1 -60 -14 -16 -168 -107 -329 -194 -22 -12 -116 -65 -210 -116 l-170
-94 -100 1 c-83 1 -118 6 -210 34 -69 21 -132 34 -170 34 -57 1 -64 -2 -128
-49 -194 -142 -196 -142 -388 -115 -252 37 -269 33 -404 -104 -56 -55 -122
-131 -148 -167 l-47 -67 0 -240 c0 -183 3 -242 13 -245 9 -4 9 -6 0 -6 -10 -1
-13 -27 -13 -95 l0 -93 58 -7 c36 -4 124 1 232 13 142 16 198 28 295 60 206
67 1172 463 1393 571 34 16 64 30 67 30 3 0 73 34 156 75 l152 75 -6 -59 c-3
-33 -15 -80 -27 -104 -25 -50 -44 -61 -285 -159 -66 -27 -133 -55 -150 -63
-112 -50 -687 -279 -765 -305 -36 -12 -78 -28 -95 -36 -85 -39 -832 -294 -862
-294 -18 0 -118 53 -146 78 -17 15 -18 12 -15 -73 l3 -89 88 -46 c163 -86 356
-141 622 -175 288 -38 585 19 911 174 128 61 224 126 344 233 315 280 470 553
535 934 26 157 25 230 -6 504 -37 330 -188 653 -418 894 -153 160 -337 281
-541 354 -229 82 -354 102 -680 106 -140 2 -271 2 -290 0z m957 -246 c89 -32
218 -102 218 -116 0 -7 -12 -21 -27 -29 -25 -16 -28 -16 -70 12 -54 37 -190
135 -202 146 -17 16 21 10 81 -13z m346 -206 l27 -28 -55 -27 c-30 -15 -55
-31 -55 -37 0 -24 -36 -7 -53 26 -21 42 -17 50 37 75 55 25 68 24 99 -9z m207
-218 c0 -15 -80 -77 -88 -70 -7 8 6 49 28 85 20 32 22 33 41 16 10 -10 19 -24
19 -31z m64 -96 c29 -41 30 -41 -148 -165 -41 -29 -77 -53 -81 -53 -22 0 57
137 100 172 35 28 97 68 107 68 4 0 14 -10 22 -22z m73 -130 c27 -31 35 -56
20 -68 -7 -6 -109 -76 -227 -157 -190 -129 -320 -205 -320 -186 0 13 68 100
120 153 30 31 84 76 119 100 174 122 257 179 262 179 3 1 15 -9 26 -21z m138
-437 c4 -31 9 -63 11 -73 6 -20 -33 -49 -102 -77 -27 -10 -112 -51 -189 -89
-77 -38 -179 -88 -227 -111 -182 -86 -547 -255 -633 -293 -49 -22 -117 -53
-150 -68 -213 -101 -873 -376 -881 -367 -3 3 100 58 228 122 211 107 483 250
616 325 15 9 63 35 107 59 44 25 123 69 175 99 81 47 311 174 390 216 14 8
108 60 210 116 102 57 223 123 270 148 47 25 99 53 115 63 27 15 31 15 42 2 6
-8 15 -41 18 -72z m25 -207 l0 -35 -132 -63 c-198 -94 -220 -104 -513 -234
-566 -252 -967 -421 -1165 -491 -136 -49 -286 -88 -297 -78 -6 7 23 21 137 65
77 31 391 162 445 186 17 8 84 37 150 66 245 107 877 396 1190 544 88 41 166
75 173 75 7 1 12 -13 12 -35z m-119 -639 c0 -6 -12 -32 -28 -58 -26 -46 -36
-53 -173 -121 -185 -91 -168 -84 -895 -398 -44 -19 -120 -52 -170 -73 -49 -21
-108 -46 -130 -56 -22 -10 -109 -46 -194 -80 -149 -60 -157 -62 -200 -51 -70
16 -173 56 -175 67 0 6 44 26 99 46 55 19 109 39 120 43 46 19 200 79 340 131
419 157 559 213 955 377 80 34 165 69 190 79 25 10 90 38 145 62 100 45 117
50 116 32z m-566 -491 c-149 -73 -801 -359 -870 -380 -49 -16 -58 -16 -65 -4
-5 8 -6 18 -1 23 4 4 73 33 152 63 318 121 337 129 754 303 66 28 125 50 130
50 6 0 -39 -25 -100 -55z"/>
<path d="M11635 8454 c-22 -19 -31 -31 -20 -25 19 8 74 61 64 61 -2 0 -22 -16
-44 -36z"/>
<path d="M284 8438 c-3 -4 5 -8 17 -8 17 0 19 -3 10 -14 -13 -16 -11 -17 161
-71 120 -38 193 -44 193 -16 0 33 -364 137 -381 109z"/>
<path d="M11535 8374 c-19 -15 -22 -21 -9 -15 18 9 52 41 43 41 -2 0 -17 -12
-34 -26z"/>
<path d="M67 8353 c-4 -3 -7 -14 -7 -24 0 -19 43 -35 217 -78 89 -23 130 -26
153 -11 22 14 5 24 -85 53 -178 58 -263 76 -278 60z"/>
<path d="M0 8211 c0 -17 4 -32 10 -36 5 -3 48 -14 95 -24 83 -18 132 -17 137
4 3 9 -197 82 -229 84 -8 1 -13 -11 -13 -28z"/>
<path d="M11222 8205 c-18 -8 -74 -26 -125 -41 -118 -34 -310 -95 -277 -88
136 28 488 142 445 143 -5 0 -25 -6 -43 -14z"/>
<path d="M0 8066 c0 -20 5 -26 23 -26 24 0 66 25 57 33 -3 3 -22 8 -42 12 -36
7 -38 6 -38 -19z"/>
<path d="M10478 8043 c6 -2 18 -2 25 0 6 3 1 5 -13 5 -14 0 -19 -2 -12 -5z"/>
<path d="M1690 7955 c0 -8 2 -15 4 -15 2 0 6 7 10 15 3 8 1 15 -4 15 -6 0 -10
-7 -10 -15z"/>
<path d="M1593 7913 c-27 -5 -30 -34 -7 -58 19 -19 20 -18 -33 -34 -25 -7 -43
-18 -43 -26 0 -9 -22 -21 -56 -31 -45 -13 -64 -14 -98 -5 -88 23 -165 31 -296
31 -170 0 -243 -12 -590 -101 -232 -58 -297 -78 -382 -114 l-88 -37 0 -134 c0
-74 3 -134 8 -134 4 0 16 6 27 14 31 21 113 44 200 56 99 13 155 31 247 75 95
46 125 54 265 65 95 7 138 16 223 46 118 41 181 47 291 24 90 -19 106 -10 242
124 126 125 173 181 183 220 6 25 4 26 -32 25 -22 -1 -49 -4 -61 -6z"/>
<path d="M10670 7840 c0 -5 9 -10 19 -10 11 0 23 5 26 10 4 6 -5 10 -19 10
-14 0 -26 -4 -26 -10z"/>
<path d="M12025 7473 c-228 -27 -366 -55 -479 -100 -566 -222 -922 -588 -1081
-1111 -6 -20 7 -37 92 -120 76 -75 143 -125 303 -230 307 -201 426 -278 572
-371 73 -46 162 -102 197 -125 36 -23 73 -45 82 -51 10 -5 55 -32 101 -60 81
-49 85 -50 170 -52 48 -1 90 2 93 7 3 4 -12 18 -33 30 -20 12 -279 173 -574
358 -296 186 -546 342 -556 347 -10 6 -63 39 -117 74 -55 36 -131 85 -170 109
-38 25 -71 46 -73 47 -8 6 11 75 20 75 9 0 82 -45 293 -180 75 -48 307 -195
380 -240 33 -20 89 -55 125 -78 36 -22 122 -76 193 -119 70 -43 146 -90 170
-105 82 -53 408 -256 482 -301 38 -24 46 -25 153 -20 l112 6 0 148 c0 82 -4
149 -8 149 -17 0 -43 -26 -80 -79 -20 -30 -42 -56 -48 -58 -17 -6 -64 36 -64
57 0 10 9 40 21 66 22 53 27 130 10 162 -15 27 -215 159 -264 174 -56 17 -84
2 -146 -75 -29 -37 -61 -67 -71 -67 -44 0 -65 69 -40 134 18 48 12 130 -11
160 -24 31 -154 121 -206 142 -63 27 -105 4 -168 -93 -35 -54 -49 -58 -85 -25
l-30 27 15 55 c8 30 15 77 15 104 0 45 -4 53 -43 90 -47 46 -149 109 -191 120
-38 9 -84 -21 -120 -78 -30 -48 -54 -57 -76 -31 -10 12 -10 28 -1 76 20 101 3
135 -101 201 -27 16 -48 37 -48 46 0 10 15 35 34 57 l34 39 38 -26 c22 -14 89
-56 149 -93 61 -38 162 -101 226 -141 64 -40 130 -81 147 -91 106 -62 423
-259 597 -370 39 -24 138 -85 220 -135 83 -50 180 -110 217 -134 36 -24 69
-44 72 -44 3 0 6 32 6 70 0 39 -4 70 -8 70 -5 0 -102 56 -216 125 -115 69
-210 125 -212 125 -2 0 -122 71 -267 159 -145 87 -268 160 -274 162 -6 2 -48
28 -94 57 -46 29 -129 80 -184 114 -206 126 -355 221 -355 227 1 8 22 33 41
49 14 11 26 7 75 -26 253 -167 584 -371 1019 -629 88 -53 223 -133 300 -179
77 -45 148 -86 158 -89 16 -7 17 2 17 107 l0 114 -207 128 c-115 71 -248 154
-298 184 -49 30 -135 83 -190 118 -55 34 -127 79 -160 100 -107 66 -170 107
-407 265 -47 32 -89 62 -92 67 -6 9 65 62 82 62 5 0 85 -51 178 -113 93 -62
207 -137 254 -166 47 -30 108 -69 135 -87 122 -79 692 -424 701 -424 2 0 4 35
4 78 l0 78 -52 30 c-29 17 -109 64 -178 103 -69 40 -141 83 -160 95 -19 13
-71 44 -115 71 -153 92 -290 177 -325 200 -19 12 -96 62 -170 110 -74 48 -139
91 -144 95 -4 5 10 18 33 29 l40 21 103 -66 c57 -37 132 -86 168 -109 74 -48
285 -176 505 -306 83 -49 157 -94 165 -99 42 -26 120 -70 125 -70 3 0 5 11 5
24 0 20 -17 33 -107 83 -167 92 -372 211 -548 318 -88 54 -185 112 -215 130
-30 17 -82 49 -115 70 l-59 38 64 29 c83 38 115 44 134 27 29 -28 295 -200
433 -280 15 -9 71 -43 123 -74 149 -90 267 -155 280 -155 6 0 10 54 10 133 l0
132 -48 28 c-434 254 -472 277 -472 288 0 18 54 8 104 -20 28 -15 92 -50 141
-76 50 -26 95 -51 100 -55 12 -9 166 -90 171 -90 2 0 4 33 4 73 l0 73 -87 44
c-97 49 -91 66 11 30 33 -11 63 -20 68 -20 4 0 8 24 8 53 l0 54 -55 12 c-108
24 -303 36 -400 24z"/>
<path d="M7880 6933 c-88 -14 -230 -58 -475 -145 -283 -100 -525 -189 -580
-213 -16 -7 -136 -47 -265 -89 -129 -42 -257 -85 -285 -96 -515 -202 -655
-270 -857 -418 -204 -149 -303 -312 -348 -580 -11 -62 -20 -118 -20 -123 0 -5
29 -9 65 -9 36 0 65 3 65 6 0 19 43 217 57 259 32 101 87 191 158 259 76 74
220 170 354 239 213 110 509 232 695 287 87 26 366 124 611 214 629 232 823
292 891 274 34 -8 64 -56 64 -99 0 -57 -102 -130 -230 -163 -30 -8 -161 -49
-290 -91 -129 -43 -255 -83 -280 -91 -143 -41 -940 -316 -1100 -379 -83 -33
-260 -116 -331 -156 -111 -64 -245 -192 -288 -277 -25 -50 -58 -148 -66 -197
-3 -22 -8 -50 -11 -62 -4 -22 -2 -23 64 -23 l69 0 7 55 c17 146 105 272 259
373 152 99 324 168 902 367 149 51 315 109 370 128 193 68 690 227 707 227 29
0 96 -110 351 -570 74 -135 172 -320 218 -412 l83 -168 68 0 68 0 -20 51 c-25
63 -164 341 -229 457 -27 48 -99 179 -161 292 -62 113 -137 244 -167 292 -29
47 -53 92 -53 100 0 7 14 20 32 27 48 21 118 90 139 136 50 108 -4 251 -114
304 -41 20 -71 23 -127 14z"/>
<path d="M7535 6201 c-96 -40 -125 -60 -125 -88 0 -28 1 -31 165 -313 147
-253 155 -267 236 -412 l71 -128 169 0 c93 0 169 2 169 5 0 7 -124 250 -153
300 -13 22 -39 69 -59 105 -60 110 -90 162 -130 228 -21 34 -38 64 -38 67 0
11 -125 203 -148 228 -21 22 -34 27 -71 26 -25 -1 -64 -9 -86 -18z"/>
<path d="M7070 6026 c-385 -119 -705 -269 -950 -449 -149 -109 -269 -234 -285
-297 -6 -25 -6 -25 65 -23 l71 2 77 79 c42 43 104 99 137 124 57 42 220 148
229 148 2 0 49 26 103 57 173 100 421 193 476 179 23 -5 96 -121 290 -460 l74
-130 144 -2 c79 -2 152 -1 161 2 14 4 11 15 -24 82 -93 178 -371 625 -422 680
-35 38 -47 38 -146 8z m311 -467 c11 -22 19 -44 17 -48 -2 -4 -15 17 -29 46
-14 28 -21 50 -17 47 5 -3 17 -23 29 -45z m80 -143 c16 -32 28 -60 26 -62 -6
-6 -77 119 -77 136 0 20 9 7 51 -74z"/>
<path d="M10770 5825 c0 -3 44 -91 98 -197 54 -106 115 -231 137 -278 21 -47
44 -88 50 -93 7 -5 568 -4 595 2 6 1 -306 206 -410 269 -41 25 -96 59 -122 76
-25 17 -95 62 -155 100 -59 38 -127 82 -150 97 -24 16 -43 26 -43 24z"/>
<path d="M6702 5604 c-101 -36 -231 -102 -332 -169 -84 -56 -205 -157 -202
-170 1 -6 66 -9 175 -6 l172 3 65 48 c89 65 192 123 275 156 39 15 79 35 89
45 18 17 18 19 2 44 -25 38 -95 85 -125 84 -14 -1 -68 -16 -119 -35z"/>
<path d="M6910 5384 c-56 -18 -222 -105 -227 -120 -4 -13 216 -6 234 8 7 5 12
5 15 -2 2 -7 33 -10 86 -8 l83 3 -24 45 c-24 46 -77 91 -106 89 -9 0 -36 -7
-61 -15z"/>
<path d="M11154 4988 c8 -18 49 -109 91 -203 67 -148 128 -286 241 -545 25
-57 241 -500 263 -540 4 -8 38 -22 74 -30 37 -8 73 -22 82 -30 9 -9 19 -50 26
-99 15 -123 26 -144 98 -181 69 -34 81 -53 105 -156 18 -82 65 -220 105 -308
15 -34 36 -82 47 -109 12 -30 24 -46 34 -45 16 3 16 4 81 378 85 490 79 394
79 1188 l0 712 -670 0 -670 0 14 -32z"/>
<path d="M280 4985 c0 -6 14 -30 30 -52 l30 -41 -22 -129 -23 -128 -88 -3
c-80 -3 -87 -4 -91 -25 -3 -12 -12 -67 -21 -122 -8 -55 -18 -112 -21 -127 l-6
-28 86 0 86 0 0 -28 c0 -28 -69 -444 -74 -449 -1 -2 -38 -13 -82 -25 l-79 -23
-3 -162 c-1 -90 1 -163 5 -163 5 0 28 7 52 16 24 8 45 13 47 11 2 -2 -12 -102
-32 -223 -26 -155 -42 -226 -56 -244 -16 -23 -18 -41 -16 -145 l3 -120 150 1
c87 0 168 6 194 13 54 15 135 94 149 144 6 19 36 190 67 379 32 188 63 346 69
350 6 4 34 15 61 24 28 9 53 20 58 23 8 8 59 322 53 328 -2 3 -29 -3 -60 -13
-31 -10 -58 -16 -60 -13 -2 2 7 75 21 162 l26 157 68 0 c38 0 69 3 69 8 0 4 9
61 20 127 29 177 32 165 -45 165 l-66 0 6 33 c32 184 53 323 49 328 -7 13
-554 6 -554 -6z"/>
<path d="M2932 4991 l-93 -6 35 -50 34 -50 -21 -125 -22 -125 -87 -3 c-81 -3
-88 -4 -93 -25 -7 -29 -45 -256 -45 -268 0 -5 40 -9 90 -9 l90 0 -6 -27 c-2
-16 -20 -122 -39 -236 -18 -115 -35 -211 -38 -213 -2 -2 -42 -15 -88 -29 -46
-14 -89 -31 -95 -38 -12 -13 -60 -315 -51 -323 3 -3 39 4 79 15 99 28 102 28
95 -11 -76 -448 -68 -416 -119 -478 -92 -114 -157 -204 -152 -212 4 -6 106 -8
252 -5 220 3 252 6 292 24 56 24 100 68 124 120 10 22 43 194 75 389 l57 349
64 23 c35 13 65 24 67 26 6 6 54 328 49 333 -2 3 -32 -4 -65 -15 -42 -14 -61
-17 -61 -9 0 7 11 79 25 160 14 82 25 151 25 153 0 1 30 4 67 6 l68 3 17 110
c9 61 19 127 23 148 l5 37 -66 0 -66 0 6 33 c4 17 11 61 16 97 6 36 16 102 24
147 7 45 11 85 8 88 -7 6 -353 3 -480 -4z"/>
<path d="M3693 4993 c-13 -5 5 -40 34 -71 7 -7 13 -15 13 -16 0 -6 -157 -350
-250 -546 -50 -107 -94 -201 -97 -207 -4 -10 14 -13 71 -13 42 0 76 -2 76 -4
0 -5 -132 -827 -150 -931 -22 -131 -60 -374 -60 -384 0 -17 1559 -15 1564 2
11 38 75 462 70 466 -2 3 -33 -22 -67 -56 -34 -33 -72 -66 -84 -72 -15 -8
-169 -11 -502 -11 -451 0 -481 1 -481 18 0 9 12 90 26 180 l27 162 278 0 277
0 6 38 c3 20 31 192 61 382 30 189 55 354 55 367 l0 23 -320 0 c-176 0 -320 2
-320 4 0 2 18 42 41 89 l40 84 227 2 c125 0 277 -2 338 -5 l110 -6 -27 -172
c-15 -94 -48 -301 -73 -461 -26 -159 -49 -302 -52 -317 -3 -15 -39 -65 -80
-111 -41 -47 -74 -88 -74 -91 0 -3 89 -6 198 -6 220 0 247 6 311 71 49 49 67
98 90 244 12 72 33 198 46 280 37 224 126 784 132 833 l6 42 -502 0 c-275 0
-501 2 -501 5 0 3 20 46 45 95 25 49 41 91 37 94 -9 6 -523 5 -539 -1z m453
-990 c-3 -21 -11 -75 -17 -120 l-12 -83 -94 0 c-68 0 -93 3 -93 13 0 6 7 60
17 120 l17 107 94 0 95 0 -7 -37z"/>
<path d="M9673 4992 c-150 -1 -273 -5 -273 -8 0 -3 14 -25 30 -49 17 -24 30
-51 30 -60 0 -8 -12 -63 -26 -120 l-26 -105 -94 0 c-52 0 -94 -3 -94 -7 0 -5
-11 -72 -24 -150 l-23 -143 61 -1 c34 -1 68 -1 78 0 27 3 28 -11 7 -93 -11
-43 -58 -238 -104 -434 -47 -196 -105 -440 -130 -542 -24 -102 -60 -254 -81
-338 -20 -85 -32 -157 -28 -161 5 -3 111 -5 235 -3 l227 4 11 41 c18 69 194
807 276 1162 42 182 78 336 80 343 3 6 17 12 33 12 16 0 44 3 61 6 28 6 31 4
31 -17 0 -40 -190 -1232 -200 -1256 -5 -12 -57 -82 -115 -154 -68 -83 -103
-135 -97 -141 6 -6 105 -8 248 -6 225 3 241 4 281 25 57 31 107 85 126 136 14
35 66 349 177 1057 11 69 38 236 60 372 22 135 40 256 40 267 0 21 -3 21 -285
21 -157 0 -285 2 -285 5 0 3 18 78 40 167 23 89 37 164 33 167 -4 3 -131 5
-280 3z"/>
<path d="M1013 4928 c-2 -5 5 -21 17 -37 l20 -30 -40 -198 c-139 -692 -357
-1745 -385 -1860 l-5 -23 212 0 213 0 18 83 c10 45 34 150 52 232 19 83 44
196 56 253 l22 102 89 0 c48 0 88 -3 88 -7 0 -5 -23 -145 -50 -312 -27 -167
-47 -308 -45 -312 3 -4 60 -6 128 -4 67 2 158 4 202 5 l81 0 23 148 c12 81 35
221 49 312 l27 165 74 3 c41 2 77 -1 81 -5 7 -7 -51 -378 -66 -425 -3 -10 -43
-65 -90 -123 -46 -58 -84 -108 -84 -112 0 -5 96 -6 212 -3 237 6 247 8 310 78
60 67 49 13 224 1082 41 256 95 582 119 725 24 143 43 261 42 262 -7 6 -1590
7 -1594 1z m1106 -433 c-11 -72 -24 -133 -27 -136 -10 -9 -151 -19 -156 -11
-2 4 6 68 18 142 l22 135 74 5 c41 3 78 3 82 0 4 -3 -2 -64 -13 -135z m-562
113 c-3 -13 -13 -75 -23 -138 -9 -63 -21 -118 -26 -121 -7 -5 -140 -1 -144 5
-1 0 10 63 24 139 l26 137 74 0 c72 0 74 -1 69 -22z m-103 -653 c-8 -47 -20
-111 -27 -143 l-12 -57 -74 -3 c-41 -2 -78 1 -82 5 -6 7 31 225 46 271 3 8 29
12 83 12 l79 0 -13 -85z m586 71 c0 -42 -44 -262 -54 -268 -6 -4 -42 -8 -80
-8 l-69 0 7 58 c3 31 13 96 22 145 l16 87 79 0 c60 0 79 -3 79 -14z"/>
<path d="M5456 4931 c-4 -6 81 -297 103 -353 l11 -28 230 0 c126 0 230 3 230
6 0 10 -112 369 -116 374 -7 6 -454 8 -458 1z"/>
<path d="M6286 4932 c-5 -9 -46 -264 -46 -289 0 -11 117 -13 712 -11 l713 3
22 120 c12 66 22 135 23 153 l0 32 -709 0 c-391 0 -712 -4 -715 -8z"/>
<path d="M8080 4885 c0 -10 -40 -260 -45 -282 l-5 -23 524 0 525 0 7 48 c4 26
14 92 24 147 9 55 15 103 13 108 -5 8 -1043 10 -1043 2z"/>
<path d="M5348 4268 c-13 -84 -23 -156 -21 -160 3 -5 31 -8 64 -8 53 0 60 -2
55 -17 -7 -24 -92 -552 -132 -823 -18 -124 -17 -122 -139 -319 -36 -57 -65
-107 -65 -112 0 -5 116 -9 260 -9 l260 0 26 40 c15 22 29 40 33 40 3 0 67 -20
141 -45 l135 -45 806 0 806 0 23 146 c19 121 20 148 9 155 -7 4 -320 8 -694 9
l-681 0 -193 64 c-106 35 -195 66 -198 70 -6 6 3 69 78 546 27 173 58 374 70
445 11 72 22 140 25 153 l4 22 -323 0 -324 0 -25 -152z"/>
<path d="M6690 4362 l-595 -2 -18 -128 c-10 -70 -21 -140 -24 -155 l-5 -28
136 2 c76 0 140 -1 143 -4 3 -3 -60 -115 -140 -249 l-145 -243 -18 -147 c-10
-81 -15 -150 -11 -154 4 -4 228 5 499 20 271 14 514 26 540 26 l47 0 3 -37 3
-38 233 -3 232 -2 -1 32 c0 18 -17 168 -38 333 l-37 300 -227 3 -227 2 5 -27
c13 -82 26 -266 18 -273 -9 -8 -424 -33 -431 -25 -2 2 27 57 66 122 38 65 101
172 139 238 l69 120 391 3 391 2 6 28 c3 15 12 72 21 127 8 55 17 112 20 128
4 24 1 27 -23 27 -15 0 -117 1 -227 2 -110 2 -468 2 -795 0z"/>
<path d="M7941 4266 c-5 -12 -17 -74 -26 -137 -9 -63 -18 -122 -21 -131 -5
-16 3 -18 75 -18 55 0 81 -4 81 -12 0 -6 -63 -201 -140 -433 -125 -380 -141
-435 -155 -546 -8 -68 -18 -141 -21 -161 -4 -21 -3 -38 2 -38 5 0 88 9 184 20
285 32 509 52 519 45 5 -3 7 -21 4 -40 l-6 -35 230 0 230 0 6 257 c4 141 7
314 7 385 l0 128 -215 0 c-215 0 -215 0 -219 -22 -3 -13 -7 -97 -10 -187 -4
-91 -8 -166 -10 -168 -6 -6 -197 -25 -202 -20 -2 2 38 134 90 293 52 159 112
343 134 409 l39 120 251 3 c251 2 252 2 257 25 17 74 45 269 40 277 -4 6 -219
10 -561 10 l-554 0 -9 -24z"/>
<path d="M11107 3575 c-20 -14 -37 -28 -37 -31 0 -8 56 24 69 40 19 22 12 20
-32 -9z"/>
<path d="M11284 3504 c-60 -41 -154 -118 -154 -127 0 -12 22 3 76 52 27 24 66
55 87 69 33 22 44 32 33 32 -2 0 -21 -12 -42 -26z"/>
<path d="M11690 3046 c-76 -17 -127 -34 -184 -63 -56 -29 -146 -93 -146 -106
0 -4 5 -5 10 -2 6 3 10 0 10 -8 0 -8 7 -17 15 -21 9 -3 15 0 15 8 0 37 122
107 238 137 81 21 241 30 280 16 30 -11 30 16 0 37 -27 19 -155 20 -238 2z"/>
<path d="M11135 2958 c-4 -18 -25 -72 -45 -120 -44 -101 -47 -98 83 -98 94 0
95 3 37 119 -22 44 -40 84 -40 88 0 4 -7 16 -14 26 -13 17 -15 16 -21 -15z"/>
<path d="M11745 2935 c-140 -26 -270 -89 -294 -142 -15 -34 6 -40 37 -10 82
76 361 148 465 119 32 -9 37 -8 37 7 0 9 -5 22 -12 29 -16 16 -142 14 -233 -3z"/>
<path d="M11298 2813 c-9 -32 -15 -59 -13 -61 2 -2 11 10 21 27 22 37 39 35
39 -5 0 -25 3 -29 25 -26 14 2 26 5 28 7 7 7 -19 45 -27 41 -4 -3 -14 13 -21
34 -7 22 -18 40 -24 40 -6 0 -19 -26 -28 -57z"/>
<path d="M11865 2844 c-96 -12 -279 -65 -292 -87 -8 -13 41 -5 161 27 68 18
124 26 181 26 l83 0 6 -30 c4 -24 11 -30 31 -30 35 0 33 31 -6 69 -31 32 -62
36 -164 25z"/>
<path d="M1506 2448 c4 -13 18 -38 32 -56 l26 -34 -23 -143 -23 -144 -92 -3
-91 -3 -22 -130 c-32 -193 -39 -175 68 -175 l91 0 -6 -27 c-9 -43 -76 -454
-76 -464 0 -12 -26 -23 -123 -51 -60 -17 -79 -27 -83 -43 -11 -46 -51 -321
-47 -327 2 -3 34 2 71 13 119 35 124 35 117 8 -3 -13 -21 -118 -41 -233 l-35
-210 -89 -121 c-49 -67 -96 -128 -105 -135 -8 -7 -15 -19 -15 -27 0 -13 35
-14 253 -11 239 4 254 5 300 27 67 33 112 89 131 164 17 65 116 663 116 698 0
20 48 47 113 63 15 4 30 12 32 19 10 25 54 341 49 346 -3 3 -32 -4 -65 -15
-47 -17 -59 -18 -59 -7 0 8 11 84 25 169 14 85 25 157 25 159 0 3 33 5 74 5
l74 0 12 88 c7 48 16 105 21 127 5 22 9 52 9 68 0 27 0 27 -70 27 -38 0 -70 3
-70 8 0 4 14 87 30 185 17 98 30 185 30 193 0 12 -44 14 -286 14 l-285 0 7
-22z"/>
<path d="M4340 2459 c0 -6 14 -32 31 -58 l32 -46 -17 -110 c-9 -60 -20 -125
-23 -142 l-5 -33 -93 0 -93 0 -6 -27 c-3 -16 -12 -77 -21 -138 -9 -60 -19
-118 -21 -127 -5 -16 4 -18 85 -18 88 0 91 -1 91 -22 0 -48 -74 -474 -84 -484
-6 -7 -51 -23 -100 -38 -49 -14 -91 -27 -92 -29 -4 -4 -22 -106 -45 -254 -7
-46 -10 -85 -7 -88 3 -4 45 5 93 19 88 26 108 26 100 3 -3 -7 -23 -113 -44
-235 -29 -168 -44 -229 -59 -245 -43 -49 -182 -238 -182 -248 0 -17 513 -6
565 12 50 17 128 94 143 140 7 19 36 185 67 369 30 184 57 347 60 361 5 21 17
29 74 47 l69 23 11 62 c24 147 44 288 39 292 -2 2 -26 -2 -53 -9 -28 -8 -57
-15 -65 -17 -18 -5 -17 5 11 176 30 183 18 165 99 165 80 0 70 -16 95 155 9
61 18 120 20 133 5 21 3 22 -66 22 l-70 0 7 58 c4 31 17 119 29 194 12 76 19
140 17 143 -3 3 -137 5 -299 5 -207 0 -293 -3 -293 -11z"/>
<path d="M5220 2456 c0 -8 11 -28 25 -44 14 -17 25 -35 25 -40 0 -10 -37 -97
-93 -222 -79 -177 -125 -280 -138 -309 -8 -18 -37 -83 -65 -145 -28 -61 -49
-114 -47 -118 2 -5 36 -8 74 -8 l70 0 -6 -32 c-3 -18 -37 -235 -75 -483 -39
-247 -86 -546 -105 -663 -20 -118 -33 -217 -30 -222 3 -5 366 -8 808 -7 l802
2 8 45 c35 205 72 450 67 450 -3 0 -24 -18 -45 -41 -22 -22 -60 -53 -84 -70
l-44 -29 -500 0 -500 0 7 67 c7 70 43 290 51 311 3 9 71 12 289 12 l286 0 5
22 c5 27 67 425 95 618 11 74 23 150 26 168 l5 32 -331 0 c-210 0 -330 4 -330
10 0 5 19 48 42 95 l42 85 342 0 c187 0 343 -2 346 -5 3 -3 -3 -56 -13 -118
-38 -233 -79 -499 -111 -706 l-32 -214 -78 -91 c-43 -50 -78 -94 -78 -98 0 -5
88 -8 195 -8 210 0 244 6 313 58 77 58 83 81 191 777 22 143 56 361 76 483 19
123 32 228 29 233 -3 5 -225 9 -520 9 -283 0 -514 3 -514 7 0 4 20 49 45 100
25 50 45 95 45 98 0 3 -128 5 -285 5 -240 0 -285 -2 -285 -14z m479 -1014 c0
-15 -8 -74 -18 -132 l-17 -105 -97 -3 c-74 -2 -97 0 -97 10 0 14 27 187 36
229 5 25 6 26 99 27 l95 2 -1 -28z"/>
<path d="M8564 2459 c-2 -4 10 -24 27 -43 54 -62 42 -71 -97 -74 l-120 -3 -17
-112 c-25 -164 -36 -147 98 -147 113 0 115 0 115 -22 0 -13 -3 -33 -6 -45 -6
-22 -10 -23 -144 -23 l-137 0 -16 -117 c-10 -65 -17 -124 -17 -130 0 -10 34
-13 135 -13 l135 0 0 -27 c0 -73 -1 -73 -125 -73 l-113 0 -12 -69 c-19 -114
-27 -181 -22 -186 3 -3 54 -5 115 -5 l109 0 -7 -42 c-4 -24 -9 -46 -12 -50 -2
-5 -57 -8 -122 -8 l-119 0 -11 -77 c-6 -43 -14 -99 -17 -125 l-7 -47 119 -3
119 -3 -3 -35 c-2 -19 -6 -38 -9 -42 -2 -5 -65 -8 -139 -8 -74 0 -134 -3 -134
-7 0 -5 -9 -61 -19 -126 -10 -65 -14 -120 -10 -123 5 -3 65 -4 134 -3 70 0
128 -1 130 -2 2 -2 -1 -24 -5 -49 -5 -25 -9 -55 -10 -67 l0 -23 213 0 214 0
12 70 c7 39 18 70 24 70 7 1 100 0 208 0 l196 -1 17 108 c10 59 20 118 23 131
l5 22 -212 0 c-189 0 -211 2 -206 16 3 9 6 29 6 45 l0 29 187 2 188 3 11 75
c6 41 14 96 18 122 l7 48 -186 0 -186 0 6 38 c4 20 8 43 10 50 3 9 50 12 189
12 l184 0 28 180 28 180 37 0 c21 0 40 4 43 8 2 4 12 50 21 102 8 52 18 107
21 123 5 26 4 27 -39 27 -40 0 -44 2 -41 23 32 212 46 295 50 310 5 16 -8 17
-186 17 l-192 0 7 66 7 65 -246 -2 c-136 -1 -249 -5 -252 -10z m521 -396 c-15
-75 -14 -73 -50 -73 -35 0 -35 0 -35 45 l0 45 44 0 c37 0 44 -3 41 -17z m-55
-345 c0 -7 -3 -30 -6 -50 -6 -37 -8 -38 -47 -38 -39 0 -39 0 -33 31 3 17 6 40
6 50 0 15 8 19 40 19 25 0 40 -5 40 -12z"/>
<path d="M10760 2462 c0 -4 18 -28 40 -52 77 -86 111 -80 -495 -80 -294 0
-535 -2 -535 -5 0 -7 36 -73 54 -100 11 -17 4 -63 -60 -355 -40 -184 -82 -378
-93 -430 -11 -52 -41 -189 -66 -305 -25 -116 -72 -336 -105 -490 -33 -154 -71
-331 -85 -394 -14 -63 -25 -116 -25 -118 0 -1 122 -3 270 -3 208 0 271 3 274
13 4 12 25 111 116 542 70 327 114 538 156 740 69 334 125 589 130 597 3 4
434 8 959 8 l953 0 6 28 c3 15 12 70 21 122 8 52 17 107 20 122 l4 28 -397 2
-397 3 4 68 3 67 -376 0 c-207 0 -376 -4 -376 -8z"/>
<path d="M7480 2420 c-58 -15 -177 -46 -265 -69 -88 -23 -180 -49 -205 -57
l-46 -14 -33 -201 c-18 -110 -30 -203 -27 -206 3 -4 34 1 67 11 34 9 64 14 67
11 3 -3 -4 -67 -17 -143 -12 -75 -40 -249 -61 -387 -22 -137 -55 -353 -75
-480 -86 -545 -115 -731 -115 -742 0 -10 55 -13 240 -13 l239 0 5 32 c9 56 44
279 55 353 11 72 43 275 86 545 13 85 43 272 65 415 22 143 52 328 65 410 37
228 85 540 85 553 0 16 -9 15 -130 -18z"/>
<path d="M43 2423 l-43 -4 0 -1210 0 -1209 369 0 368 0 6 32 c3 18 28 168 57
333 28 165 75 444 105 620 146 863 197 1161 219 1289 14 76 23 143 20 147 -5
9 -1012 10 -1101 2z"/>
<path d="M2240 2395 c0 -2 13 -25 29 -50 16 -25 27 -53 25 -63 -2 -9 -20 -93
-38 -187 -52 -255 -172 -837 -196 -945 -11 -52 -25 -115 -30 -140 -5 -25 -48
-227 -95 -449 -47 -222 -85 -407 -85 -412 0 -5 100 -9 223 -9 l223 0 69 322
c37 178 72 337 77 354 l8 31 95 2 95 2 0 -29 c0 -16 -23 -165 -50 -332 -28
-166 -48 -306 -45 -311 7 -10 354 -13 402 -3 l30 6 54 330 55 330 86 4 c48 2
89 0 91 -4 6 -9 -67 -444 -77 -460 -4 -8 -46 -61 -92 -119 -46 -57 -84 -109
-84 -115 0 -6 78 -8 213 -6 193 3 216 5 257 25 73 34 115 81 138 153 7 19 32
159 57 310 57 349 219 1346 251 1550 13 85 27 170 30 188 l6 32 -861 0 c-473
0 -861 -2 -861 -5z m600 -328 c1 -39 -45 -283 -54 -289 -19 -13 -156 -9 -156
4 0 12 48 262 55 284 4 15 155 16 155 1z m622 8 c9 -9 -43 -289 -55 -297 -16
-10 -164 -10 -171 0 -2 4 -1 28 4 52 5 25 16 89 26 142 l16 97 57 4 c31 2 70
4 87 5 17 1 33 0 36 -3z m-149 -624 l54 -1 -13 -72 c-7 -40 -18 -106 -24 -145
l-12 -73 -89 0 c-87 0 -89 0 -89 24 0 43 40 260 49 266 5 3 23 4 40 4 17 -1
55 -2 84 -3z m-589 -133 c-13 -73 -26 -139 -29 -145 -5 -14 -170 -19 -178 -5
-4 6 38 239 48 270 3 8 31 12 93 12 l89 0 -23 -132z"/>
<path d="M7690 2363 c0 -5 -9 -62 -20 -128 -11 -66 -20 -132 -20 -147 l0 -28
100 0 c55 0 100 -2 100 -5 0 -3 -67 -140 -148 -303 -126 -253 -150 -310 -161
-372 -6 -40 -8 -77 -4 -81 5 -5 61 -10 125 -11 l117 -3 -49 -120 c-27 -66 -54
-128 -60 -137 -5 -10 -10 -24 -10 -32 0 -37 -27 -21 -106 63 -47 50 -89 91
-92 91 -8 0 -63 -377 -62 -422 0 -17 17 -48 46 -84 39 -48 45 -59 36 -78 -6
-11 -37 -82 -68 -156 -31 -74 -67 -158 -80 -187 -13 -28 -24 -54 -24 -58 0 -3
81 -4 181 -3 l181 3 31 72 c17 40 34 73 38 73 4 0 38 -32 75 -70 l67 -70 664
0 c364 0 663 3 663 8 1 4 11 76 24 160 l23 152 -576 0 -576 0 -104 104 -104
105 36 88 c19 48 73 178 118 288 65 157 86 222 100 305 11 58 19 117 19 133
l0 27 -90 0 c-89 0 -107 8 -81 36 4 5 48 86 96 179 48 94 103 198 122 232 34
62 37 75 77 351 l5 32 -305 0 c-167 0 -304 -3 -304 -7z"/>
<path d="M10954 1953 l-9 -38 -267 -3 -267 -2 -5 -33 c-3 -17 -12 -71 -21
-118 -8 -47 -15 -89 -15 -92 0 -4 122 -7 270 -7 293 0 282 2 260 -55 -9 -24
-14 -26 -62 -23 -29 1 -166 1 -304 0 l-251 -2 -17 -107 c-10 -60 -20 -118 -23
-130 l-5 -23 307 0 306 0 -3 -37 -3 -38 -271 -3 -271 -2 -17 -103 c-9 -56 -19
-114 -22 -129 l-6 -28 271 0 271 0 0 -22 c0 -13 -20 -144 -44 -291 l-44 -268
-63 -77 c-35 -42 -66 -79 -69 -82 -14 -12 -80 -98 -80 -104 0 -10 458 -7 535
4 141 20 210 84 239 223 15 70 96 582 96 605 0 9 79 12 310 12 l309 0 7 36 c4
21 16 96 28 168 l22 131 55 3 55 3 17 92 c9 51 19 111 23 135 l7 42 -60 0 -59
0 23 143 c12 78 23 150 23 159 0 16 -23 18 -307 20 l-308 3 3 38 4 37 -279 0
-279 0 -10 -37z m676 -320 c0 -47 -10 -53 -86 -51 -64 3 -69 5 -72 26 -7 46 2
52 83 52 l75 0 0 -27z m-52 -350 l-3 -38 -77 -3 -78 -3 0 34 c0 18 3 37 7 40
3 4 40 7 80 7 l74 0 -3 -37z"/>
<path d="M12366 978 c-60 -365 -121 -734 -136 -820 l-26 -158 138 0 138 0 0
820 c0 451 -1 820 -3 820 -1 0 -51 -298 -111 -662z"/>
<path d="M10152 918 c3 -7 24 -71 48 -143 23 -71 47 -136 53 -142 7 -10 62
-13 212 -13 112 0 210 3 219 6 16 6 0 56 -72 229 l-29 70 -218 3 c-172 2 -216
0 -213 -10z"/>
<path d="M11555 922 c-25 -18 -186 -283 -179 -294 9 -14 418 -10 436 4 14 12
54 80 137 230 17 32 31 60 31 63 0 8 -414 6 -425 -3z"/>
<path d="M10280 581 c-16 -4 -44 -35 -80 -88 -30 -45 -90 -133 -132 -195 -43
-63 -78 -119 -78 -125 0 -7 11 -10 28 -8 15 2 113 4 218 4 l192 1 83 128 c128
197 179 279 179 287 0 8 -381 4 -410 -4z"/>
<path d="M11360 580 c0 -13 53 -150 115 -297 l47 -113 225 0 224 0 -7 23 c-10
31 -165 369 -177 385 -12 16 -427 18 -427 2z"/>
</g>
</svg>
